<svg width="76" height="48" viewBox="0 0 76 48" fill="none" xmlns="http://www.w3.org/2000/svg">
<path fill-rule="evenodd" clip-rule="evenodd" d="M17.2718 0H58.724C68.2926 0 75.9958 8.22674 75.9958 18.4456C75.9958 28.6645 68.2727 36.2335 58.724 36.8912L33.8866 38.602C32.986 38.6641 32.1546 39.1076 31.6015 39.8212L26.6055 46.2667C25.2886 47.9657 22.6975 47.8867 21.4866 46.1106L16.8855 39.3621C16.2668 38.4546 15.2161 37.9674 14.1259 37.8335C6.55231 36.9033 0 27.9343 0 18.4456C0 8.22674 7.70321 0 17.2718 0ZM54.4565 7.1355L29.8912 5.71285C23.5229 5.34404 18.0066 10.1678 17.523 16.5285C17.0393 22.8892 21.7769 28.3068 28.1452 28.6756L52.7105 30.0982C59.0789 30.4671 64.5951 25.6433 65.0788 19.2826C65.5624 12.9219 60.8249 7.50431 54.4565 7.1355Z" fill="#C5ECFF"/>
<path d="M34.2278 8.44023L53.309 9.54528C58.2557 9.83175 61.9355 14.0399 61.5599 18.9806C61.1842 23.9213 56.8994 27.6681 51.9528 27.3817L32.8716 26.2766C27.925 25.9901 24.2451 21.782 24.6208 16.8413C24.9964 11.9006 29.2812 8.15375 34.2278 8.44023Z" fill="#C5ECFF"/>
</svg>
