<svg width="432" height="91" viewBox="0 0 432 91" fill="none" xmlns="http://www.w3.org/2000/svg">
<path fill-rule="evenodd" clip-rule="evenodd" d="M30.9516 5.67443H105.236C122.383 5.67443 136.187 20.417 136.187 38.7296C136.187 57.0421 122.347 70.6061 105.236 71.7847L60.7261 74.8506C59.1121 74.9618 57.6223 75.7566 56.6311 77.0353L47.6781 88.586C45.3181 91.6307 40.6748 91.4891 38.5047 88.3062L30.2594 76.2127C29.1507 74.5864 27.2678 73.7134 25.3142 73.4734C11.742 71.8065 0 55.7336 0 38.7296C0 20.417 13.8044 5.67443 30.9516 5.67443ZM97.5881 18.4615L53.5662 15.9121C42.1538 15.2511 32.2685 23.8955 31.4018 35.2941C30.5351 46.6926 39.0249 56.4012 50.4373 57.0621L94.4592 59.6115C105.872 60.2725 115.757 51.6281 116.624 40.2295C117.49 28.831 109 19.1224 97.5881 18.4615Z" fill="white"/>
<path d="M61.3376 20.7996L95.5318 22.7799C104.396 23.2933 110.991 30.8344 110.318 39.6883C109.644 48.5422 101.966 55.2567 93.1014 54.7433L58.9072 52.7631C50.0426 52.2497 43.4481 44.7085 44.1213 35.8547C44.7946 27.0008 52.473 20.2862 61.3376 20.7996Z" fill="white"/>
<path d="M230.146 16.9668C233.114 16.9668 235.907 17.5759 238.526 18.7939C241.203 20.0121 243.56 21.6946 245.597 23.8408C247.634 25.929 249.235 28.3652 250.399 31.1494C251.621 33.9334 252.232 36.8915 252.232 40.0234C252.174 41.4154 251.621 42.547 250.574 43.417C249.526 44.2871 248.304 44.7227 246.907 44.7227H218.082C218.392 46.3317 218.921 47.7825 219.671 49.0732C221.009 51.2191 222.696 52.8722 224.733 54.0322C226.828 55.1343 229.04 55.6855 231.368 55.6855C233.521 55.6855 235.238 55.5111 236.518 55.1631C237.799 54.8151 238.817 54.4093 239.574 53.9453C240.389 53.4233 241.116 52.9886 241.756 52.6406C242.804 52.1186 243.793 51.8575 244.724 51.8574C246.004 51.8574 247.052 52.2922 247.867 53.1621C248.74 54.0321 249.176 55.0471 249.176 56.207C249.176 57.7732 248.362 59.1946 246.732 60.4707C245.219 61.7468 243.095 62.8782 240.36 63.8643C237.625 64.7923 234.802 65.2568 231.892 65.2568C226.945 65.2568 222.638 64.2411 218.971 62.2109C215.363 60.1228 212.57 57.3096 210.591 53.7715C208.671 50.2331 207.711 46.2301 207.711 41.7637C207.711 36.5435 208.758 32.1064 210.853 28.4521C213.006 24.7398 215.8 21.897 219.234 19.9248C222.668 17.9527 226.305 16.9668 230.146 16.9668Z" fill="white"/>
<path fill-rule="evenodd" clip-rule="evenodd" d="M409.173 16.9668C412.142 16.9668 414.935 17.5758 417.554 18.7939C420.231 20.0121 422.588 21.6947 424.625 23.8408C426.662 25.929 428.262 28.3652 429.426 31.1494C430.648 33.9334 431.259 36.8914 431.259 40.0234C431.201 41.4154 430.649 42.5469 429.601 43.417C428.554 44.2871 427.331 44.7227 425.934 44.7227H397.109C397.42 46.3317 397.948 47.7825 398.698 49.0732C400.036 51.2193 401.725 52.8722 403.761 54.0322C405.856 55.1342 408.067 55.6855 410.395 55.6855C412.548 55.6855 414.266 55.5111 415.547 55.1631C416.827 54.8151 417.845 54.4092 418.601 53.9453C419.416 53.4233 420.144 52.9886 420.784 52.6406C421.831 52.1186 422.821 51.8575 423.752 51.8574C425.032 51.8574 426.08 52.292 426.895 53.1621C427.768 54.032 428.204 55.0472 428.204 56.207C428.204 57.7732 427.389 59.1946 425.759 60.4707C424.246 61.7468 422.122 62.8782 419.387 63.8643C416.652 64.7923 413.829 65.2568 410.92 65.2568C405.973 65.2568 401.666 64.2411 398 62.2109C394.391 60.1228 391.598 57.3098 389.619 53.7715C387.698 50.2331 386.738 46.2301 386.738 41.7637C386.738 36.5435 387.786 32.1063 389.88 28.4521C392.034 24.7398 394.828 21.897 398.261 19.9248C401.695 17.9527 405.332 16.9668 409.173 16.9668ZM409.173 26.5371C407.428 26.5371 405.798 26.7694 404.285 27.2334C402.772 27.6974 401.462 28.4809 400.356 29.583C399.25 30.6851 398.377 32.1644 397.737 34.0205C397.526 34.6336 397.35 35.3008 397.209 36.0215H420.086V35.4121C419.969 33.7301 419.358 32.2217 418.253 30.8877C417.205 29.5537 415.866 28.5099 414.237 27.7559C412.666 26.9438 410.978 26.5371 409.173 26.5371Z" fill="white"/>
<path d="M184.464 7.83105C185.976 7.83106 187.198 8.35269 188.13 9.39648C189.119 10.3826 189.614 11.6305 189.614 13.1387V18.707H195.812C197.209 18.707 198.373 19.1705 199.304 20.0986C200.235 21.0267 200.701 22.1871 200.701 23.5791C200.701 24.9132 200.235 26.0446 199.304 26.9727C198.373 27.8427 197.209 28.2773 195.812 28.2773H189.614V51.8574C189.614 52.6693 189.759 53.3364 190.05 53.8584C190.4 54.3804 190.836 54.7572 191.36 54.9893C191.942 55.2213 192.553 55.3379 193.193 55.3379C193.891 55.3379 194.532 55.2213 195.114 54.9893C195.696 54.6993 196.365 54.5547 197.122 54.5547C197.936 54.5547 198.664 54.9315 199.304 55.6855C200.002 56.4395 200.351 57.4836 200.351 58.8174C200.351 60.4415 199.449 61.7762 197.645 62.8203C195.899 63.8643 194.008 64.3867 191.971 64.3867C190.749 64.3867 189.381 64.299 187.868 64.125C186.413 63.893 185.016 63.4005 183.677 62.6465C182.397 61.8345 181.321 60.6161 180.448 58.9922C179.575 57.368 179.138 55.1343 179.138 52.292V28.2773H175.123C173.726 28.2773 172.562 27.8138 171.63 26.8857C170.699 25.9577 170.234 24.7974 170.234 23.4053C170.234 22.0712 170.699 20.9687 171.63 20.0986C172.562 19.1706 173.726 18.707 175.123 18.707H179.138V13.1387C179.138 11.6305 179.633 10.3826 180.623 9.39648C181.67 8.35263 182.951 7.83105 184.464 7.83105Z" fill="white"/>
<path d="M267.583 0C269.096 0 270.318 0.522307 271.25 1.56641C272.239 2.55245 272.733 3.79965 272.733 5.30762V59.0791C272.733 60.5871 272.209 61.8632 271.162 62.9072C270.172 63.8933 268.921 64.3867 267.408 64.3867C265.953 64.3867 264.731 63.8932 263.742 62.9072C262.753 61.8632 262.258 60.5871 262.257 59.0791V5.30762C262.257 3.79948 262.752 2.5525 263.742 1.56641C264.789 0.522319 266.07 1.1674e-05 267.583 0Z" fill="white"/>
<path d="M291.112 0C292.625 0 293.848 0.522307 294.779 1.56641C295.768 2.55245 296.262 3.79964 296.262 5.30762V59.0791C296.262 60.5871 295.739 61.8632 294.691 62.9072C293.702 63.8932 292.45 64.3867 290.937 64.3867C289.482 64.3867 288.26 63.8932 287.271 62.9072C286.282 61.8632 285.787 60.5871 285.787 59.0791V5.30762C285.787 3.79949 286.282 2.5525 287.271 1.56641C288.319 0.522326 289.599 1.93331e-05 291.112 0Z" fill="white"/>
<path d="M362.305 16.9668C366.496 16.9668 369.668 17.8659 371.821 19.6641C374.032 21.4622 375.546 23.8694 376.361 26.8857C377.176 29.844 377.583 33.1504 377.583 36.8047V59.0791C377.583 60.5871 377.088 61.8632 376.098 62.9072C375.109 63.8932 373.857 64.3867 372.344 64.3867C370.832 64.3866 369.581 63.8931 368.591 62.9072C367.602 61.8632 367.107 60.5871 367.107 59.0791V36.8047C367.107 34.8905 366.874 33.179 366.409 31.6709C365.943 30.1048 365.099 28.8578 363.877 27.9297C362.654 27.0018 360.909 26.5371 358.639 26.5371C356.428 26.5371 354.536 27.0016 352.964 27.9297C351.393 28.8578 350.2 30.1048 349.385 31.6709C348.629 33.179 348.251 34.8905 348.251 36.8047V59.0791C348.251 60.587 347.756 61.8632 346.767 62.9072C345.778 63.8932 344.526 64.3866 343.013 64.3867C341.5 64.3867 340.249 63.8932 339.259 62.9072C338.27 61.8632 337.775 60.5871 337.775 59.0791V36.8047C337.775 34.8905 337.542 33.179 337.077 31.6709C336.611 30.1049 335.768 28.8577 334.546 27.9297C333.323 27.0016 331.577 26.5371 329.307 26.5371C327.096 26.5371 325.205 27.0017 323.633 27.9297C322.062 28.8578 320.868 30.1047 320.053 31.6709C319.297 33.179 318.919 34.8905 318.919 36.8047V59.0791C318.919 60.5871 318.424 61.8632 317.435 62.9072C316.446 63.8933 315.194 64.3867 313.681 64.3867C312.168 64.3867 310.917 63.8933 309.927 62.9072C308.938 61.8632 308.443 60.5871 308.443 59.0791V23.1445C308.443 21.6365 308.938 20.3894 309.927 19.4033C310.917 18.3592 312.168 17.8369 313.681 17.8369C315.194 17.837 316.446 18.3593 317.435 19.4033C318.424 20.3894 318.919 21.6366 318.919 23.1445V24.5908C319.187 24.2316 319.477 23.8647 319.792 23.4922C320.723 22.3321 321.858 21.2595 323.197 20.2734C324.535 19.2874 326.02 18.5039 327.649 17.9238C329.279 17.2859 331.054 16.9668 332.974 16.9668C337.63 16.9669 341.064 18.0982 343.275 20.3604C344.953 22.0331 346.195 24.0902 347.002 26.5312C347.7 25.2755 348.726 23.9424 350.084 22.5352C351.539 20.969 353.285 19.6642 355.322 18.6201C357.417 17.5181 359.745 16.9668 362.305 16.9668Z" fill="white"/>
</svg>
