<svg width="460" height="236" viewBox="0 0 460 236" fill="none" xmlns="http://www.w3.org/2000/svg">
<path d="M119.952 0.287296L356.888 14.0089C418.312 17.5661 464.006 69.8197 459.341 131.169C454.676 192.519 401.471 239.045 340.048 235.488L103.112 221.766C41.6883 218.209 -4.00589 165.955 0.658761 104.606C5.32372 43.2561 58.5285 -3.26995 119.952 0.287296Z" fill="#111111"/>
<path d="M165.73 102.823C168.49 102.823 171.087 103.39 173.522 104.522C176.012 105.655 178.204 107.219 180.098 109.215C181.992 111.156 183.48 113.422 184.562 116.011C185.699 118.6 186.267 121.35 186.267 124.263C186.212 125.557 185.699 126.609 184.725 127.418C183.751 128.227 182.614 128.632 181.315 128.632H154.512C154.801 130.128 155.292 131.476 155.989 132.677C157.234 134.672 158.803 136.209 160.697 137.288C162.645 138.313 164.702 138.825 166.866 138.825C168.868 138.825 170.465 138.663 171.655 138.34C172.846 138.016 173.794 137.639 174.497 137.208C175.255 136.723 175.931 136.318 176.526 135.994C177.5 135.509 178.42 135.266 179.286 135.266C180.477 135.266 181.45 135.67 182.208 136.479C183.02 137.288 183.426 138.232 183.426 139.31C183.426 140.767 182.668 142.089 181.153 143.275C179.746 144.462 177.771 145.514 175.227 146.431C172.684 147.294 170.059 147.725 167.353 147.725C162.754 147.725 158.749 146.781 155.34 144.893C151.985 142.952 149.388 140.336 147.548 137.046C145.762 133.756 144.869 130.034 144.869 125.881C144.869 121.027 145.843 116.901 147.791 113.503C149.793 110.051 152.39 107.408 155.583 105.574C158.776 103.74 162.159 102.823 165.73 102.823Z" fill="white"/>
<path fill-rule="evenodd" clip-rule="evenodd" d="M332.197 102.823C334.957 102.823 337.555 103.39 339.99 104.522C342.479 105.655 344.671 107.219 346.565 109.215C348.459 111.156 349.947 113.422 351.029 116.011C352.166 118.6 352.734 121.35 352.734 124.263C352.68 125.557 352.166 126.609 351.192 127.418C350.218 128.227 349.082 128.632 347.783 128.632H320.979C321.268 130.128 321.76 131.476 322.457 132.677C323.702 134.672 325.271 136.209 327.165 137.288C329.113 138.313 331.169 138.825 333.334 138.825C335.336 138.825 336.932 138.663 338.123 138.34C339.313 138.016 340.26 137.639 340.964 137.208C341.721 136.723 342.398 136.318 342.993 135.994C343.967 135.509 344.888 135.266 345.754 135.266C346.944 135.266 347.918 135.67 348.676 136.479C349.487 137.288 349.893 138.232 349.893 139.31C349.893 140.767 349.135 142.089 347.62 143.275C346.213 144.462 344.238 145.514 341.694 146.431C339.151 147.293 336.527 147.725 333.821 147.725C329.222 147.725 325.217 146.781 321.808 144.893C318.452 142.952 315.855 140.336 314.015 137.046C312.229 133.756 311.336 130.034 311.336 125.881C311.336 121.027 312.311 116.901 314.259 113.503C316.261 110.051 318.858 107.408 322.051 105.574C325.243 103.74 328.626 102.823 332.197 102.823ZM332.197 111.723C330.574 111.723 329.059 111.939 327.652 112.37C326.245 112.802 325.027 113.53 323.999 114.555C322.971 115.579 322.159 116.955 321.563 118.681C321.367 119.251 321.204 119.871 321.072 120.541H342.344V119.975C342.235 118.411 341.668 117.008 340.64 115.768C339.666 114.527 338.42 113.557 336.905 112.855C335.444 112.1 333.875 111.723 332.197 111.723Z" fill="white"/>
<path d="M123.253 94.3281C124.66 94.3281 125.796 94.8134 126.662 95.7841C127.582 96.701 128.042 97.8613 128.042 99.2636V104.441H133.805C135.103 104.441 136.186 104.873 137.052 105.735C137.917 106.598 138.35 107.677 138.351 108.972C138.351 110.212 137.918 111.264 137.052 112.127C136.186 112.936 135.103 113.341 133.805 113.341H128.042V135.266C128.042 136.021 128.177 136.641 128.447 137.127C128.772 137.612 129.178 137.963 129.665 138.179C130.206 138.394 130.775 138.502 131.37 138.502C132.019 138.502 132.614 138.394 133.155 138.179C133.696 137.909 134.319 137.773 135.022 137.773C135.78 137.773 136.457 138.124 137.052 138.825C137.701 139.526 138.026 140.498 138.026 141.738C138.026 143.248 137.187 144.489 135.51 145.46C133.886 146.431 132.127 146.916 130.233 146.916C129.097 146.916 127.825 146.835 126.418 146.673C125.065 146.457 123.767 145.999 122.522 145.298C121.332 144.543 120.33 143.41 119.519 141.9C118.707 140.39 118.301 138.313 118.301 135.67V113.341H114.567C113.269 113.341 112.186 112.909 111.32 112.046C110.455 111.183 110.022 110.105 110.021 108.81C110.021 107.57 110.454 106.544 111.32 105.735C112.186 104.872 113.269 104.441 114.567 104.441H118.301V99.2636C118.301 97.8613 118.761 96.701 119.681 95.7841C120.655 94.8133 121.846 94.3281 123.253 94.3281Z" fill="white"/>
<path d="M200.54 87.0468C201.947 87.0468 203.084 87.532 203.95 88.5029C204.87 89.4198 205.33 90.5801 205.33 91.9824V141.98C205.33 143.383 204.842 144.57 203.868 145.541C202.948 146.458 201.785 146.916 200.378 146.916C199.025 146.916 197.889 146.458 196.969 145.541C196.049 144.57 195.589 143.383 195.589 141.98V91.9824C195.589 90.58 196.049 89.4198 196.969 88.5029C197.943 87.5321 199.133 87.0469 200.54 87.0468Z" fill="white"/>
<path d="M222.419 87.0468C223.826 87.0468 224.962 87.5322 225.828 88.5029C226.748 89.4198 227.208 90.58 227.208 91.9824V141.98C227.208 143.383 226.721 144.57 225.747 145.541C224.827 146.458 223.664 146.916 222.257 146.916C220.904 146.916 219.768 146.458 218.848 145.541C217.928 144.57 217.468 143.383 217.468 141.98V91.9824C217.468 90.58 217.928 89.4198 218.848 88.5029C219.822 87.5322 221.012 87.0468 222.419 87.0468Z" fill="white"/>
<path d="M288.618 102.823C292.514 102.823 295.464 103.659 297.466 105.331C299.522 107.003 300.929 109.241 301.686 112.046C302.444 114.797 302.823 117.871 302.823 121.269V141.98C302.823 143.383 302.363 144.57 301.443 145.541C300.523 146.458 299.36 146.916 297.953 146.916C296.546 146.916 295.383 146.458 294.463 145.541C293.543 144.57 293.082 143.383 293.082 141.98V121.269C293.082 119.49 292.865 117.898 292.433 116.496C292 115.04 291.215 113.88 290.079 113.018C288.943 112.155 287.319 111.723 285.209 111.723C283.153 111.723 281.394 112.155 279.933 113.018C278.471 113.88 277.362 115.04 276.604 116.496C275.901 117.898 275.549 119.49 275.549 121.269V141.98C275.549 143.383 275.089 144.57 274.169 145.541C273.249 146.458 272.085 146.916 270.679 146.916C269.272 146.916 268.108 146.458 267.188 145.541C266.268 144.57 265.809 143.383 265.809 141.98V121.269C265.809 119.49 265.592 117.898 265.159 116.496C264.726 115.04 263.941 113.88 262.805 113.018C261.668 112.155 260.045 111.723 257.935 111.723C255.878 111.723 254.119 112.155 252.658 113.018C251.197 113.88 250.088 115.04 249.33 116.496C248.627 117.898 248.275 119.49 248.275 121.269V141.98C248.275 143.383 247.815 144.57 246.895 145.541C245.976 146.458 244.811 146.916 243.404 146.916C241.997 146.916 240.834 146.458 239.914 145.541C238.994 144.57 238.534 143.383 238.534 141.98V108.567C238.534 107.165 238.994 106.006 239.914 105.089C240.834 104.118 241.997 103.632 243.404 103.632C244.811 103.632 245.976 104.118 246.895 105.089C247.815 106.006 248.275 107.165 248.275 108.567V109.911C248.524 109.577 248.795 109.237 249.087 108.891C249.953 107.812 251.008 106.814 252.253 105.897C253.497 104.981 254.877 104.252 256.393 103.713C257.908 103.12 259.558 102.823 261.344 102.823C265.673 102.823 268.865 103.875 270.922 105.978C272.482 107.534 273.637 109.447 274.388 111.717C275.037 110.549 275.991 109.31 277.254 108.001C278.607 106.545 280.23 105.331 282.124 104.36C284.072 103.336 286.237 102.823 288.618 102.823Z" fill="white"/>
<path d="M122.815 28.7844L114.558 28.757C114.001 28.7552 113.537 28.5678 113.166 28.195C112.796 27.8221 112.612 27.357 112.614 26.7995C112.615 26.2653 112.803 25.813 113.176 25.4426C113.548 25.0955 114.013 24.9228 114.571 24.9247L122.828 24.9521C123.385 24.9539 123.849 25.1413 124.22 25.5141C124.59 25.887 124.774 26.3521 124.772 26.9095C124.771 27.4438 124.583 27.8844 124.211 28.2316C123.838 28.602 123.373 28.7863 122.815 28.7844ZM119.073 33.127C118.469 33.125 117.982 32.9144 117.612 32.4951C117.218 32.0989 117.022 31.5989 117.024 30.995L117.076 15.4913C117.077 15.1661 117.02 14.8988 116.904 14.6894C116.766 14.4799 116.592 14.3283 116.383 14.2347C116.151 14.1411 115.908 14.0938 115.652 14.093C115.373 14.092 115.118 14.1376 114.885 14.2298C114.652 14.3451 114.385 14.4023 114.083 14.4013C113.758 14.4002 113.468 14.2483 113.214 13.9455C112.936 13.6426 112.798 13.2241 112.8 12.6899C112.802 12.0396 113.164 11.5065 113.885 11.0908C114.583 10.6751 115.339 10.4685 116.152 10.4712C116.64 10.4729 117.185 10.5095 117.789 10.5812C118.369 10.676 118.926 10.8753 119.459 11.179C119.969 11.5059 120.397 11.9951 120.743 12.6466C121.09 13.2981 121.261 14.1929 121.257 15.331L121.205 31.0089C121.203 31.6127 121.004 32.1115 120.608 32.505C120.188 32.9217 119.677 33.129 119.073 33.127Z" fill="white"/>
<path d="M103.384 11.3447C105.338 11.0643 107.097 11.2225 108.661 11.8194C110.205 12.4425 111.469 13.3992 112.452 14.6895C113.412 15.9831 114.019 17.5151 114.273 19.2854C114.57 21.3546 114.408 23.1728 113.788 24.74C113.149 26.3335 112.207 27.6184 110.963 28.5948C109.718 29.5711 108.337 30.1682 106.82 30.3859C105.647 30.5541 104.509 30.4711 103.405 30.1367C102.278 29.8056 101.252 29.2725 100.325 28.5373C99.4014 27.8251 98.6306 26.9502 98.0125 25.9126C97.3713 24.8783 96.9616 23.7404 96.7835 22.4988C96.7273 21.9438 96.8814 21.4641 97.2458 21.0598C97.6101 20.6556 98.0682 20.4139 98.62 20.3347L111.794 18.4444L113.323 21.7446L100.667 23.5607L101.326 22.7621L101.46 23.6932C101.602 24.3534 101.929 24.9165 102.442 25.3826C102.931 25.8521 103.519 26.19 104.206 26.3965C104.873 26.6293 105.563 26.6946 106.276 26.5923C106.965 26.4934 107.596 26.309 108.167 26.0393C108.739 25.7696 109.211 25.385 109.586 24.8855C109.96 24.386 110.221 23.7502 110.368 22.9782C110.515 22.2062 110.508 21.2569 110.346 20.1304C110.168 18.8889 109.764 17.8676 109.132 17.0665C108.482 16.2917 107.721 15.7321 106.85 15.3877C105.96 15.0697 105.055 14.9766 104.135 15.1086C103.284 15.2306 102.616 15.3969 102.13 15.6074C101.644 15.818 101.265 16.0366 100.992 16.2634C100.7 16.5166 100.437 16.7302 100.204 16.9045C99.8202 17.1708 99.4442 17.3303 99.0764 17.3831C98.5706 17.4557 98.132 17.3426 97.7606 17.0439C97.3663 16.7485 97.1361 16.3709 97.0701 15.9111C96.9811 15.2904 97.2221 14.6809 97.7933 14.0827C98.3185 13.4911 99.0933 12.9224 100.118 12.3765C101.146 11.8536 102.234 11.5097 103.384 11.3447Z" fill="white"/>
<path d="M89.4725 17.068C89.3095 16.4865 89.3729 15.938 89.6626 15.4226C89.9362 14.9359 90.3638 14.611 90.9453 14.448C91.5044 14.2913 92.0273 14.3497 92.5141 14.6234C93.0071 14.9194 93.3351 15.3581 93.4981 15.9396L99.3091 36.6717C99.4721 37.2532 99.4168 37.7873 99.1432 38.2741C98.8534 38.7895 98.4178 39.1287 97.8363 39.2917C97.2549 39.4546 96.7288 39.385 96.2581 39.0827C95.7713 38.8091 95.4465 38.3815 95.2835 37.8001L89.4725 17.068Z" fill="white"/>
<path d="M82.4044 19.5567C82.1983 18.989 82.2205 18.4374 82.4709 17.9017C82.7074 17.3959 83.1094 17.0399 83.6771 16.8339C84.2229 16.6358 84.7488 16.655 85.2546 16.8915C85.7684 17.1498 86.1283 17.5628 86.3344 18.1304L93.6795 38.3699C93.8855 38.9376 93.8703 39.4743 93.6339 39.9802C93.3835 40.5158 92.9745 40.8866 92.4068 41.0927C91.8391 41.2987 91.3093 41.2686 90.8174 41.0023C90.3115 40.7659 89.9556 40.3638 89.7495 39.7961L82.4044 19.5567Z" fill="white"/>
<path d="M80.0186 39.1436C78.4188 40.0887 77.0085 40.3956 75.7879 40.0646C74.5791 39.7536 73.4944 39.059 72.5338 37.9808L73.2032 37.9496L73.2468 38.5713C73.2785 39.173 73.1979 39.8815 73.0051 40.6968C72.8241 41.5321 72.4899 42.3364 72.0026 43.1098C71.5071 43.9151 70.8194 44.5776 69.9395 45.0973C68.4996 45.9479 67.2266 46.2817 66.1205 46.0988C64.9944 45.9278 63.9842 45.405 63.0899 44.5305C62.2075 43.6759 61.3942 42.6187 60.6499 41.3588L56.1138 33.6795C55.8066 33.1595 55.7167 32.6192 55.8441 32.0584C55.9832 31.5176 56.3128 31.0936 56.8327 30.7865C57.3527 30.4793 57.8831 30.3953 58.4239 30.5345C58.9765 30.6936 59.4063 31.0332 59.7135 31.5532L64.2496 39.2325C64.6395 39.8924 65.0679 40.4351 65.535 40.8606C66.014 41.306 66.5579 41.5647 67.1669 41.6366C67.7759 41.7085 68.4703 41.5141 69.2503 41.0534C70.0102 40.6045 70.5656 40.0606 70.9166 39.4217C71.2675 38.7828 71.4235 38.1106 71.3846 37.4053C71.3374 36.7318 71.1189 36.065 70.7291 35.4051L66.1929 27.7258C65.8858 27.2058 65.7959 26.6654 65.9232 26.1046C66.0624 25.5639 66.3919 25.1399 66.9119 24.8328C67.4318 24.5256 67.9622 24.4416 68.503 24.5808C69.0556 24.7399 69.4855 25.0795 69.7926 25.5994L74.3288 33.2788C74.7186 33.9387 75.1471 34.4814 75.6142 34.9069C76.0931 35.3523 76.6371 35.611 77.246 35.6829C77.855 35.7548 78.5495 35.5604 79.3294 35.0997C80.0893 34.6508 80.6448 34.1069 80.9957 33.468C81.3467 32.829 81.5027 32.1569 81.4637 31.4516C81.4165 30.7781 81.198 30.1113 80.8082 29.4514L76.272 21.772C75.9649 21.2521 75.875 20.7117 76.0023 20.1509C76.1415 19.6101 76.471 19.1862 76.991 18.879C77.511 18.5719 78.0413 18.4879 78.5821 18.6271C79.1347 18.7862 79.5646 19.1258 79.8717 19.6457L87.1898 32.0346C87.497 32.5546 87.581 33.085 87.4418 33.6258C87.3145 34.1866 86.9908 34.6205 86.4709 34.9277C85.9509 35.2348 85.4146 35.3088 84.862 35.1496C84.3212 35.0105 83.8973 34.6809 83.5901 34.161L82.8282 32.8711L83.3313 32.6953C83.3522 33.1416 83.3148 33.6492 83.2193 34.2182C83.1356 34.8072 82.9642 35.4075 82.705 36.0191C82.4459 36.6308 82.0954 37.202 81.6536 37.7328C81.2236 38.2835 80.6786 38.7538 80.0186 39.1436Z" fill="white"/>
<path d="M46.3868 40.2882C47.8023 38.9119 49.3179 38.0052 50.9338 37.568C52.5491 37.1636 54.1337 37.1941 55.6876 37.6594C57.2248 38.1409 58.6168 39.0227 59.8636 40.305C61.3208 41.8038 62.2597 43.3691 62.6802 45.0011C63.1003 46.666 63.0944 48.2592 62.6624 49.7807C62.2304 51.3022 61.4648 52.5972 60.3658 53.6659C59.5165 54.4916 58.5471 55.094 57.4577 55.4729C56.3517 55.868 55.2077 56.0408 54.0258 55.9913C52.86 55.9585 51.722 55.7044 50.6118 55.2289C49.4849 54.7696 48.4843 54.0903 47.61 53.191C47.238 52.7752 47.0805 52.2966 47.1374 51.7554C47.1942 51.2142 47.4225 50.7493 47.8222 50.3607L57.3642 41.083L60.5423 42.8522L51.3749 51.7656L51.4387 50.7317L52.0945 51.4062C52.5974 51.8567 53.1932 52.1197 53.882 52.1951C54.5541 52.2866 55.2286 52.214 55.9054 51.9771C56.5817 51.7731 57.1779 51.4201 57.6942 50.9182C58.1938 50.4324 58.5953 49.9124 58.8987 49.3582C59.2022 48.804 59.3583 48.2149 59.367 47.5909C59.3758 46.9668 59.2127 46.2993 58.8777 45.5883C58.5428 44.8773 57.9786 44.1138 57.1853 43.2979C56.3109 42.3986 55.3829 41.8107 54.4013 41.5341C53.4192 41.2904 52.4748 41.2853 51.5681 41.5189C50.661 41.7854 49.8744 42.2425 49.2083 42.8902C48.5921 43.4893 48.1494 44.0169 47.8802 44.473C47.611 44.9291 47.4329 45.329 47.346 45.6727C47.2586 46.0493 47.1718 46.3766 47.0858 46.6546C46.9318 47.0959 46.7215 47.4461 46.4551 47.7052C46.0887 48.0614 45.6676 48.228 45.1915 48.2048C44.6989 48.1979 44.2906 48.0279 43.9668 47.6949C43.5296 47.2453 43.3661 46.6106 43.4762 45.7909C43.5529 45.0035 43.845 44.0878 44.3524 43.0437C44.876 42.0163 45.5542 41.0978 46.3868 40.2882Z" fill="white"/>
<path d="M42.7644 78.5972C42.0702 80.3208 41.1381 81.4227 39.9681 81.903C38.8197 82.392 37.5363 82.5011 36.1179 82.2303L36.6301 81.7981L37.043 82.2649C37.4344 82.723 37.8017 83.3341 38.145 84.0984C38.5098 84.8713 38.7342 85.7129 38.8183 86.6231C38.9153 87.5636 38.7729 88.5078 38.3911 89.4558C37.7663 91.007 36.9594 92.0467 35.9705 92.5749C34.9729 93.1246 33.8531 93.3247 32.6113 93.1751C31.3911 93.0342 30.1023 92.6904 28.7449 92.1437L20.4717 88.8117C19.9115 88.5861 19.5113 88.212 19.271 87.6896C19.0522 87.1758 19.0557 86.6388 19.2813 86.0787C19.5069 85.5185 19.8766 85.129 20.3904 84.9103C20.9257 84.7002 21.4734 84.708 22.0336 84.9336L30.3068 88.2657C31.0178 88.552 31.6881 88.7218 32.3177 88.775C32.9688 88.837 33.5578 88.7111 34.0848 88.3975C34.6117 88.0839 35.0444 87.507 35.3828 86.6667C35.7126 85.848 35.8222 85.0784 35.7118 84.3579C35.6013 83.6373 35.316 83.0091 34.8558 82.4732C34.4084 81.9675 33.8292 81.5715 33.1183 81.2851L24.845 77.953C24.2849 77.7274 23.8846 77.3534 23.6443 76.831C23.4256 76.3172 23.429 75.7802 23.6546 75.22C23.8802 74.6599 24.2499 74.2704 24.7637 74.0517C25.299 73.8416 25.8468 73.8494 26.4069 74.075L34.6802 77.407C35.3911 77.6934 36.0614 77.8632 36.691 77.9164C37.3421 77.9783 37.9312 77.8525 38.4581 77.5389C38.9851 77.2253 39.4177 76.6484 39.7561 75.8081C40.0859 74.9894 40.1955 74.2198 40.0851 73.4992C39.9747 72.7787 39.6893 72.1505 39.2291 71.6145C38.7817 71.1089 38.2026 70.7128 37.4916 70.4265L29.2184 67.0944C28.6582 66.8688 28.258 66.4948 28.0177 65.9723C27.7989 65.4586 27.8023 64.9216 28.0279 64.3614C28.2536 63.8012 28.6232 63.4118 29.137 63.193C29.6723 62.983 30.2201 62.9907 30.7803 63.2163L44.1273 68.5919C44.6875 68.8175 45.0769 69.1872 45.2957 69.701C45.536 70.2234 45.5433 70.7647 45.3177 71.3249C45.0921 71.8851 44.7116 72.2702 44.1763 72.4803C43.6625 72.699 43.1256 72.6956 42.5654 72.47L41.1758 71.9103L41.468 71.4646C41.7561 71.806 42.0355 72.2315 42.306 72.7411C42.598 73.2593 42.8274 73.84 42.9941 74.483C43.1608 75.1261 43.2304 75.7926 43.2029 76.4827C43.1969 77.1814 43.0507 77.8862 42.7644 78.5972Z" fill="white"/>
<path d="M16.8324 99.9506C17.1115 97.9961 17.7568 96.3521 18.7684 95.0184C19.7996 93.7109 21.0724 92.7665 22.5866 92.1849C24.0976 91.6264 25.7383 91.4735 27.5088 91.7263C29.5782 92.0218 31.2781 92.6868 32.6085 93.7213C33.9586 94.7822 34.9277 96.0467 35.5158 97.515C36.1039 98.9832 36.2896 100.476 36.073 101.994C35.9056 103.166 35.5065 104.236 34.876 105.201C34.2421 106.19 33.4423 107.026 32.4767 107.709C31.534 108.396 30.478 108.89 29.3087 109.193C28.136 109.518 26.9289 109.592 25.6873 109.415C25.1387 109.313 24.7215 109.031 24.4357 108.567C24.1499 108.104 24.0464 107.597 24.1252 107.045L26.0062 93.8697L29.6029 93.3274L27.7958 105.985L27.2143 105.128L28.1455 105.261C28.8189 105.31 29.4512 105.154 30.0424 104.793C30.6304 104.454 31.1198 103.985 31.5106 103.384C31.9211 102.809 32.1773 102.165 32.2791 101.452C32.3775 100.762 32.3775 100.105 32.2789 99.4812C32.1803 98.8571 31.9437 98.2954 31.5692 97.7962C31.1947 97.2969 30.6576 96.8683 29.958 96.5103C29.2583 96.1523 28.3451 95.8929 27.2184 95.7321C25.9768 95.5548 24.883 95.6567 23.937 96.0378C23.0107 96.4452 22.2602 97.0185 21.6854 97.7576C21.1304 98.523 20.7872 99.3655 20.6559 100.285C20.5344 101.136 20.5066 101.824 20.5723 102.35C20.638 102.875 20.7416 103.301 20.8828 103.626C21.0438 103.977 21.1752 104.289 21.2771 104.562C21.4249 105.005 21.4726 105.411 21.4201 105.779C21.3478 106.285 21.1163 106.674 20.7254 106.947C20.3313 107.242 19.9043 107.357 19.4444 107.292C18.8236 107.203 18.3062 106.801 17.8923 106.085C17.4718 105.415 17.1432 104.511 16.9066 103.375C16.693 102.242 16.6683 101.1 16.8324 99.9506Z" fill="white"/>
<path d="M19.0425 109.188C19.3611 108.947 19.7761 108.831 20.2875 108.84C20.799 108.849 21.2485 109.139 21.636 109.709C21.8785 110.074 21.9823 110.466 21.9474 110.885C21.9357 111.304 21.738 111.716 21.3542 112.121C20.6996 112.813 20.1967 113.536 19.8458 114.289C19.4949 115.042 19.3348 115.976 19.3657 117.091C19.3985 117.438 19.4556 117.82 19.5368 118.236C19.6412 118.651 19.8369 119.006 20.1239 119.3C20.4347 119.617 20.8919 119.767 21.4956 119.75C22.0064 119.736 22.4079 119.551 22.7001 119.194C22.9923 118.838 23.2348 118.366 23.4277 117.78C23.6213 117.217 23.8013 116.585 23.9677 115.883C24.1568 115.157 24.3684 114.408 24.6026 113.635C24.8374 112.885 25.1435 112.191 25.5209 111.553C25.9215 110.915 26.453 110.389 27.1154 109.975C27.7778 109.562 28.6197 109.341 29.6413 109.313C30.8022 109.281 31.798 109.579 32.6286 110.206C33.4592 110.834 34.1092 111.652 34.5786 112.662C35.0486 113.694 35.2994 114.779 35.3309 115.917C35.3508 116.637 35.2788 117.394 35.1149 118.188C34.9742 118.982 34.7165 119.745 34.3417 120.475C33.9901 121.205 33.5076 121.823 32.8942 122.328C32.553 122.593 32.1393 122.755 31.653 122.815C31.1667 122.875 30.7195 122.667 30.3113 122.19C30.023 121.85 29.8841 121.447 29.8945 120.982C29.9281 120.516 30.08 120.129 30.3502 119.819C30.8501 119.41 31.2417 118.865 31.5249 118.183C31.8087 117.525 31.9387 116.766 31.915 115.907C31.9053 115.559 31.8483 115.177 31.7439 114.762C31.6633 114.369 31.4795 114.025 31.1926 113.731C30.9288 113.436 30.5067 113.297 29.9263 113.313C29.3923 113.328 28.9675 113.514 28.6521 113.871C28.3599 114.228 28.1174 114.699 27.9245 115.285C27.7555 115.894 27.5874 116.538 27.4203 117.216C27.2538 117.918 27.0528 118.632 26.8173 119.359C26.5819 120.086 26.2635 120.757 25.8623 121.372C25.4611 121.987 24.9289 122.49 24.2659 122.88C23.6261 123.27 22.7954 123.479 21.7738 123.507C20.5897 123.54 19.5701 123.219 18.715 122.546C17.8599 121.872 17.1973 121.019 16.7273 119.987C16.2804 118.954 16.0419 117.891 16.0117 116.8C15.9738 115.43 16.1681 114.054 16.5946 112.671C17.0442 111.288 17.8602 110.127 19.0425 109.188Z" fill="white"/>
<path d="M19.5523 124.37C19.8296 124.082 20.2216 123.903 20.7282 123.833C21.2349 123.762 21.7239 123.979 22.1952 124.482C22.4914 124.805 22.6548 125.176 22.6855 125.596C22.7389 126.011 22.6076 126.449 22.2914 126.909C21.7521 127.694 21.3676 128.486 21.1379 129.285C20.9081 130.083 20.895 131.031 21.0985 132.127C21.1849 132.465 21.3005 132.833 21.4453 133.232C21.613 133.626 21.8614 133.946 22.1905 134.192C22.5468 134.456 23.0217 134.534 23.6155 134.423C24.1179 134.33 24.4857 134.085 24.719 133.687C24.9523 133.289 25.1187 132.786 25.2183 132.177C25.3221 131.591 25.4017 130.938 25.4572 130.219C25.5314 129.473 25.6241 128.7 25.7354 127.9C25.8509 127.122 26.0456 126.389 26.3193 125.701C26.6159 125.008 27.0593 124.406 27.6495 123.894C28.2397 123.383 29.0372 123.034 30.042 122.848C31.1838 122.636 32.2137 122.776 33.1317 123.267C34.0497 123.758 34.8189 124.465 35.4393 125.39C36.064 126.337 36.4802 127.37 36.6879 128.489C36.8193 129.197 36.8657 129.956 36.8272 130.766C36.8114 131.572 36.6752 132.365 36.4184 133.145C36.1844 133.921 35.8036 134.606 35.2761 135.2C34.9802 135.515 34.5967 135.74 34.1256 135.874C33.6545 136.009 33.1803 135.872 32.7031 135.465C32.3654 135.173 32.1657 134.797 32.1037 134.336C32.0646 133.871 32.1545 133.464 32.3734 133.117C32.8038 132.635 33.1059 132.036 33.2798 131.318C33.458 130.624 33.4687 129.854 33.3118 129.009C33.2483 128.667 33.1326 128.298 32.965 127.904C32.8244 127.529 32.5895 127.218 32.2604 126.972C31.9541 126.722 31.5155 126.649 30.9446 126.755C30.4193 126.853 30.0286 127.103 29.7725 127.505C29.5392 127.902 29.3728 128.406 29.2733 129.015C29.2008 129.642 29.1347 130.304 29.0749 131C29.0194 131.719 28.9318 132.456 28.812 133.211C28.6922 133.965 28.4819 134.678 28.181 135.348C27.8802 136.018 27.4326 136.597 26.8381 137.085C26.2665 137.569 25.4783 137.905 24.4735 138.091C23.3089 138.307 22.2519 138.149 21.3026 137.617C20.3533 137.084 19.5663 136.344 18.9417 135.397C18.3399 134.446 17.9393 133.434 17.7401 132.36C17.49 131.013 17.4682 129.623 17.6748 128.191C17.9043 126.755 18.5301 125.481 19.5523 124.37Z" fill="white"/>
<path d="M22.6804 149.59C21.988 147.741 21.7659 145.989 22.0141 144.333C22.2921 142.692 22.9561 141.253 24.006 140.016C25.0641 138.801 26.4305 137.881 28.1054 137.253C30.063 136.52 31.8736 136.289 33.5372 136.559C35.2307 136.842 36.6875 137.487 37.9076 138.493C39.1278 139.5 40.0066 140.721 40.5442 142.156C40.9596 143.266 41.1222 144.395 41.0319 145.545C40.9498 146.717 40.6489 147.834 40.1292 148.897C39.6312 149.951 38.9417 150.892 38.0605 151.718C37.1875 152.565 36.1637 153.209 34.9891 153.649C34.4589 153.823 33.9574 153.775 33.4845 153.505C33.0116 153.236 32.6774 152.84 32.4819 152.318L27.8147 139.855L30.7109 137.654L35.1948 149.628L34.2735 149.155L35.1544 148.825C35.7689 148.545 36.249 148.105 36.5945 147.505C36.9482 146.926 37.1523 146.279 37.207 145.564C37.2916 144.863 37.2077 144.175 36.9552 143.5C36.7108 142.848 36.3958 142.271 36.01 141.771C35.6242 141.271 35.1473 140.891 34.5792 140.633C34.0112 140.374 33.3343 140.256 32.5487 140.277C31.763 140.298 30.8373 140.509 29.7715 140.908C28.5969 141.348 27.6859 141.962 27.0385 142.75C26.4211 143.551 26.0374 144.414 25.8874 145.338C25.7674 146.276 25.8703 147.18 26.1961 148.05C26.4974 148.855 26.803 149.472 27.1127 149.902C27.4224 150.332 27.7172 150.655 27.9971 150.873C28.3069 151.104 28.5719 151.315 28.792 151.505C29.1343 151.823 29.3707 152.157 29.501 152.505C29.6802 152.983 29.6637 153.436 29.4515 153.862C29.2474 154.311 28.9278 154.617 28.4928 154.779C27.9055 154.999 27.2585 154.894 26.5519 154.465C25.8616 154.078 25.1401 153.443 24.3875 152.559C23.6567 151.667 23.0876 150.678 22.6804 149.59Z" fill="white"/>
<path d="M48.2514 157.308C49.1534 158.771 49.5296 160.067 49.3799 161.196C49.2424 162.345 48.7449 163.375 47.8875 164.286C47.0621 165.204 46.0265 166.047 44.781 166.815L37.189 171.496C36.6749 171.813 36.1364 171.913 35.5733 171.796C35.0299 171.667 34.5998 171.346 34.2829 170.832C33.9659 170.318 33.8719 169.789 34.0008 169.246C34.1494 168.69 34.4808 168.254 34.9948 167.937L42.5868 163.256C43.2393 162.854 43.7676 162.405 44.172 161.911C44.6083 161.423 44.8505 160.865 44.8987 160.235C44.9468 159.605 44.721 158.884 44.2212 158.074C43.7336 157.283 43.161 156.708 42.5034 156.35C41.8579 156.011 41.1769 155.858 40.4602 155.89C39.7755 155.931 39.1069 156.152 38.4545 156.554L30.8625 161.235C30.3484 161.552 29.8099 161.652 29.2468 161.535C28.7034 161.406 28.2733 161.085 27.9564 160.571C27.6394 160.057 27.5454 159.528 27.6743 158.985C27.8229 158.429 28.1543 157.993 28.6683 157.676L40.9164 150.125C41.4304 149.808 41.9591 149.714 42.5024 149.842C43.0655 149.959 43.5055 150.275 43.8225 150.789C44.1394 151.303 44.2236 151.837 44.0749 152.393C43.946 152.936 43.6246 153.366 43.1105 153.683L41.8353 154.47L41.65 153.97C42.0958 153.941 42.6102 153.978 43.193 154.083C43.7957 154.175 44.4052 154.345 45.0217 154.592C45.6382 154.84 46.222 155.189 46.7732 155.641C47.3442 156.08 47.8369 156.636 48.2514 157.308Z" fill="white"/>
<path d="M56.4049 167.701C57.0721 168.413 57.5736 169.168 57.9094 169.968C58.2451 170.768 58.4421 171.538 58.5004 172.279C58.5745 173.038 58.5449 173.702 58.4115 174.273C58.3109 174.845 58.142 175.242 57.9047 175.464L56.9548 175.113L58.8102 173.374C59.2507 172.961 59.75 172.763 60.3082 172.781C60.8832 172.783 61.3773 173.005 61.7903 173.445C62.2033 173.886 62.4009 174.385 62.3829 174.943C62.3649 175.501 62.1272 175.995 61.6697 176.424L50.3594 187.028C48.8852 188.41 47.4058 189.192 45.921 189.374C44.4352 189.589 43.0129 189.363 41.6541 188.694C40.2784 188.042 39.0345 187.123 37.9225 185.937C37.6047 185.598 37.2341 185.118 36.8104 184.496C36.3868 183.874 36.0039 183.262 35.6618 182.66C35.3198 182.057 35.0804 181.581 34.9438 181.232C34.6875 180.517 34.6334 179.899 34.7817 179.378C34.9289 178.889 35.2445 178.53 35.7284 178.299C36.3628 177.991 36.932 177.919 37.4361 178.083C37.9233 178.263 38.2739 178.603 38.4878 179.103C38.5958 179.32 38.7563 179.695 38.9692 180.227C39.1821 180.76 39.4436 181.311 39.754 181.88C40.0632 182.481 40.3847 182.96 40.7183 183.316C41.9097 184.586 43.0456 185.289 44.1258 185.422C45.206 185.555 46.1952 185.201 47.0932 184.359L49.3044 182.286L49.3616 182.805C49.1414 183.012 48.759 183.148 48.2147 183.212C47.7032 183.278 47.1043 183.25 46.418 183.13C45.7477 183.026 45.0482 182.806 44.3195 182.47C43.6078 182.119 42.966 181.638 42.3941 181.028C41.2662 179.825 40.546 178.463 40.2336 176.941C39.9381 175.403 40.0535 173.862 40.5798 172.318C41.123 170.758 42.0809 169.335 43.4534 168.048C44.8428 166.745 46.3249 165.881 47.8997 165.455C49.4914 165.013 51.0286 164.989 52.5113 165.382C54.0109 165.759 55.3088 166.532 56.4049 167.701ZM54.0619 170.805C53.347 170.043 52.5331 169.548 51.6202 169.322C50.7073 169.095 49.778 169.123 48.8323 169.404C47.8866 169.686 47.007 170.208 46.1937 170.971C45.3973 171.717 44.8281 172.553 44.4861 173.479C44.144 174.405 44.0567 175.33 44.224 176.256C44.3914 177.182 44.8325 178.026 45.5474 178.788C46.2781 179.567 47.1 180.071 48.0129 180.297C48.9258 180.524 49.8551 180.496 50.8008 180.214C51.7465 179.933 52.6176 179.419 53.414 178.672C54.2273 177.909 54.805 177.065 55.147 176.14C55.4891 175.214 55.5764 174.288 55.409 173.363C55.2417 172.437 54.7926 171.585 54.0619 170.805Z" fill="white"/>
<path d="M58.3398 194.861C56.732 193.716 55.5681 192.387 54.8482 190.876C54.1606 189.359 53.9064 187.795 54.0855 186.183C54.2835 184.584 54.9014 183.056 55.9392 181.6C57.1523 179.898 58.5239 178.693 60.0541 177.987C61.6166 177.275 63.185 176.995 64.7593 177.147C66.3336 177.299 67.7449 177.82 68.9934 178.71C69.9581 179.397 70.7245 180.243 71.2926 181.246C71.8797 182.264 72.2549 183.358 72.4182 184.53C72.5951 185.682 72.5491 186.848 72.2805 188.025C72.0307 189.216 71.5419 190.322 70.8141 191.344C70.4717 191.784 70.0291 192.025 69.4865 192.066C68.9438 192.107 68.4455 191.966 67.9915 191.643L57.1529 183.919L58.3235 180.475L68.7365 187.895L67.7079 188.018L68.2538 187.252C68.6069 186.677 68.7587 186.043 68.7093 185.352C68.6789 184.674 68.4864 184.024 68.132 183.401C67.81 182.772 67.3558 182.248 66.7694 181.831C66.2019 181.426 65.6184 181.125 65.0187 180.925C64.4191 180.726 63.8115 180.678 63.196 180.782C62.5805 180.885 61.9531 181.165 61.3137 181.622C60.6743 182.079 60.0244 182.771 59.3639 183.698C58.6361 184.72 58.2241 185.738 58.1281 186.753C58.0644 187.763 58.2289 188.693 58.6213 189.543C59.0462 190.388 59.6369 191.08 60.3936 191.619C61.0934 192.118 61.6919 192.458 62.1889 192.641C62.6859 192.824 63.1113 192.928 63.465 192.952C63.8512 192.97 64.1887 192.997 64.4776 193.032C64.9394 193.104 65.3217 193.248 65.6243 193.464C66.0405 193.76 66.2798 194.145 66.3425 194.617C66.424 195.103 66.33 195.535 66.0604 195.914C65.6965 196.424 65.1015 196.699 64.2753 196.738C63.487 196.803 62.5337 196.68 61.4155 196.368C60.3108 196.038 59.2856 195.535 58.3398 194.861Z" fill="white"/>
<path d="M69.067 200.97C68.5252 200.703 68.1643 200.306 67.9844 199.777C67.8148 199.228 67.8633 198.682 68.13 198.14L74.4844 185.23C74.7511 184.689 75.1488 184.328 75.6774 184.148C76.2163 183.947 76.7567 183.98 77.2985 184.247C77.8403 184.514 78.196 184.922 78.3657 185.471C78.5456 186 78.5021 186.535 78.2355 187.077L76.7892 190.015L77.6012 187.813C78.0766 187.426 78.5838 187.132 79.1227 186.931C79.6927 186.72 80.2684 186.602 80.85 186.577C81.4418 186.532 82.0289 186.575 82.6115 186.707C83.194 186.838 83.7457 187.032 84.2667 187.288C84.8919 187.596 85.3257 188.03 85.5681 188.589C85.8313 189.159 85.845 189.683 85.6091 190.163C85.2706 190.85 84.8473 191.263 84.3391 191.401C83.8413 191.519 83.384 191.475 82.9672 191.27C82.5712 191.075 82.2425 190.822 81.9808 190.512C81.74 190.213 81.4113 189.96 80.9945 189.755C80.6194 189.57 80.1877 189.474 79.6994 189.467C79.2423 189.449 78.7547 189.546 78.2366 189.757C77.7394 189.978 77.2481 190.319 76.7628 190.779C76.3085 191.228 75.8968 191.828 75.5275 192.578L71.8811 199.987C71.6144 200.528 71.2116 200.9 70.6727 201.1C70.144 201.28 69.6088 201.237 69.067 200.97Z" fill="white"/>
<path d="M89.9259 200.633C89.3298 200.536 88.8554 200.27 88.5024 199.836C88.1761 199.383 88.0596 198.87 88.1529 198.297C88.2462 197.724 88.5176 197.286 88.967 196.982C89.4394 196.683 89.9736 196.581 90.5696 196.678L113.403 200.395C113.999 200.492 114.462 200.756 114.792 201.186C115.145 201.62 115.275 202.124 115.181 202.697C115.088 203.27 114.803 203.718 114.327 204.04C113.878 204.344 113.355 204.447 112.759 204.35L89.9259 200.633Z" fill="white"/>
<path d="M134.466 194.496C135.788 194.573 136.928 194.779 137.885 195.113C138.866 195.449 139.609 195.888 140.113 196.429C140.641 196.948 140.885 197.555 140.845 198.251C140.818 198.715 140.653 199.147 140.351 199.549C140.05 199.927 139.632 200.1 139.099 200.069C138.728 200.048 138.418 199.983 138.168 199.876C137.943 199.746 137.742 199.595 137.566 199.422C137.39 199.249 137.178 199.086 136.931 198.932C136.708 198.779 136.354 198.654 135.871 198.556C135.413 198.437 135.068 198.37 134.836 198.357C133.653 198.288 132.63 198.485 131.766 198.947C130.925 199.41 130.258 200.069 129.767 200.925C129.276 201.757 128.998 202.742 128.933 203.878C128.868 204.991 129.031 206.001 129.42 206.907C129.834 207.792 130.421 208.512 131.18 209.068C131.962 209.625 132.874 209.934 133.918 209.995C134.497 210.028 134.998 210.022 135.419 209.977C135.841 209.931 136.195 209.847 136.481 209.724C136.816 209.557 137.118 209.377 137.385 209.183C137.652 208.989 138.041 208.907 138.551 208.937C139.154 208.972 139.606 209.196 139.908 209.609C140.211 209.998 140.346 210.471 140.314 211.028C140.281 211.608 139.925 212.122 139.248 212.572C138.571 212.998 137.691 213.331 136.607 213.57C135.548 213.788 134.403 213.861 133.174 213.79C131.343 213.684 129.778 213.175 128.482 212.262C127.187 211.326 126.21 210.107 125.553 208.603C124.919 207.1 124.654 205.445 124.759 203.636C124.869 201.735 125.348 200.087 126.197 198.694C127.07 197.279 128.214 196.205 129.629 195.473C131.068 194.718 132.681 194.393 134.466 194.496Z" fill="white"/>
<path d="M161.7 205.775C161.59 207.677 161.064 209.333 160.121 210.744C159.203 212.133 158.002 213.192 156.517 213.921C155.056 214.65 153.444 214.964 151.682 214.862C149.919 214.76 148.343 214.261 146.952 213.367C145.585 212.473 144.514 211.283 143.739 209.795C142.989 208.286 142.669 206.581 142.779 204.68C142.889 202.778 143.403 201.133 144.321 199.744C145.264 198.332 146.466 197.262 147.927 196.532C149.413 195.781 151.037 195.456 152.8 195.558C154.562 195.66 156.126 196.17 157.492 197.086C158.883 197.981 159.953 199.183 160.703 200.692C161.478 202.18 161.81 203.874 161.7 205.775ZM157.527 205.534C157.595 204.351 157.411 203.317 156.973 202.431C156.561 201.523 155.963 200.802 155.179 200.268C154.419 199.735 153.552 199.441 152.578 199.384C151.604 199.328 150.697 199.519 149.858 199.959C149.041 200.401 148.364 201.048 147.826 201.901C147.312 202.732 147.021 203.739 146.953 204.921C146.886 206.081 147.059 207.114 147.471 208.022C147.909 208.909 148.507 209.618 149.267 210.15C150.051 210.684 150.929 210.98 151.903 211.036C152.877 211.092 153.772 210.9 154.589 210.459C155.429 210.019 156.105 209.383 156.619 208.552C157.157 207.699 157.459 206.693 157.527 205.534Z" fill="white"/>
<path d="M175.172 196.854C176.888 196.953 178.166 197.388 179.005 198.158C179.868 198.929 180.427 199.927 180.682 201.151C180.961 202.354 181.058 203.686 180.974 205.147L180.458 214.051C180.423 214.654 180.197 215.152 179.778 215.547C179.361 215.918 178.851 216.087 178.248 216.052C177.645 216.017 177.158 215.791 176.787 215.374C176.417 214.934 176.249 214.412 176.284 213.809L176.8 204.905C176.844 204.14 176.779 203.45 176.606 202.835C176.456 202.198 176.138 201.679 175.649 201.279C175.16 200.878 174.441 200.65 173.49 200.595C172.562 200.542 171.763 200.681 171.092 201.015C170.445 201.35 169.929 201.82 169.545 202.426C169.185 203.01 168.984 203.685 168.939 204.45L168.424 213.354C168.389 213.957 168.162 214.456 167.744 214.85C167.327 215.221 166.817 215.39 166.214 215.355C165.611 215.32 165.124 215.094 164.752 214.677C164.382 214.237 164.215 213.715 164.25 213.112L165.082 198.747C165.117 198.144 165.343 197.657 165.76 197.286C166.178 196.891 166.689 196.712 167.291 196.747C167.894 196.781 168.381 197.019 168.751 197.459C169.122 197.876 169.29 198.386 169.255 198.989L169.169 200.485L168.653 200.35C168.885 199.968 169.21 199.568 169.63 199.15C170.051 198.709 170.54 198.307 171.096 197.944C171.652 197.581 172.273 197.303 172.959 197.11C173.646 196.894 174.384 196.808 175.172 196.854Z" fill="white"/>
<path d="M195.283 198.018C196.999 198.118 198.277 198.552 199.116 199.322C199.979 200.093 200.538 201.091 200.793 202.316C201.072 203.519 201.169 204.85 201.085 206.311L200.569 215.215C200.534 215.818 200.308 216.317 199.889 216.711C199.472 217.083 198.962 217.251 198.359 217.216C197.757 217.181 197.269 216.955 196.898 216.538C196.528 216.098 196.36 215.576 196.395 214.974L196.911 206.069C196.955 205.304 196.891 204.614 196.717 203.999C196.568 203.362 196.249 202.844 195.76 202.443C195.271 202.043 194.552 201.815 193.601 201.76C192.673 201.706 191.874 201.846 191.204 202.179C190.556 202.514 190.04 202.984 189.656 203.59C189.297 204.174 189.095 204.849 189.05 205.614L188.535 214.518C188.5 215.121 188.273 215.62 187.855 216.015C187.438 216.386 186.928 216.554 186.325 216.519C185.722 216.484 185.235 216.258 184.864 215.841C184.494 215.401 184.326 214.88 184.361 214.277L185.193 199.912C185.228 199.309 185.454 198.822 185.871 198.45C186.289 198.056 186.8 197.876 187.403 197.911C188.005 197.946 188.492 198.183 188.862 198.624C189.233 199.041 189.402 199.551 189.367 200.154L189.28 201.649L188.764 201.515C188.996 201.132 189.321 200.733 189.741 200.315C190.162 199.874 190.651 199.472 191.207 199.108C191.763 198.745 192.384 198.467 193.07 198.274C193.757 198.058 194.495 197.973 195.283 198.018Z" fill="white"/>
<path d="M213.094 218.418C211.123 218.304 209.431 217.799 208.017 216.903C206.627 215.985 205.58 214.796 204.873 213.336C204.19 211.877 203.9 210.255 204.003 208.469C204.124 206.383 204.644 204.633 205.564 203.22C206.507 201.786 207.686 200.714 209.1 200.005C210.514 199.296 211.986 198.986 213.516 199.074C214.699 199.143 215.798 199.451 216.813 199.998C217.851 200.547 218.752 201.274 219.513 202.179C220.277 203.06 220.858 204.071 221.257 205.211C221.68 206.352 221.855 207.549 221.782 208.801C221.727 209.356 221.48 209.796 221.043 210.119C220.605 210.443 220.108 210.589 219.552 210.556L206.265 209.787L205.423 206.248L218.188 206.988L217.383 207.639L217.437 206.7C217.43 206.025 217.221 205.408 216.811 204.849C216.425 204.291 215.916 203.843 215.284 203.504C214.677 203.143 214.013 202.942 213.295 202.9C212.599 202.86 211.944 202.915 211.331 203.066C210.717 203.216 210.177 203.499 209.711 203.914C209.245 204.329 208.863 204.9 208.565 205.628C208.267 206.355 208.085 207.287 208.019 208.423C207.947 209.675 208.14 210.756 208.599 211.667C209.083 212.556 209.717 213.256 210.502 213.766C211.311 214.255 212.179 214.527 213.107 214.58C213.965 214.63 214.653 214.6 215.171 214.491C215.689 214.381 216.104 214.242 216.417 214.074C216.753 213.884 217.053 213.727 217.316 213.603C217.746 213.418 218.146 213.337 218.517 213.358C219.027 213.388 219.434 213.586 219.739 213.952C220.067 214.32 220.217 214.736 220.19 215.2C220.154 215.826 219.796 216.375 219.118 216.848C218.485 217.323 217.613 217.726 216.5 218.057C215.389 218.365 214.253 218.486 213.094 218.418Z" fill="white"/>
<path d="M233.383 200.225C234.705 200.301 235.845 200.507 236.803 200.842C237.784 201.178 238.526 201.616 239.03 202.157C239.558 202.676 239.802 203.284 239.762 203.979C239.735 204.443 239.57 204.876 239.268 205.277C238.967 205.655 238.55 205.829 238.016 205.798C237.645 205.776 237.335 205.712 237.085 205.604C236.86 205.475 236.659 205.324 236.483 205.15C236.307 204.977 236.096 204.814 235.849 204.66C235.625 204.507 235.272 204.382 234.789 204.285C234.33 204.165 233.985 204.098 233.753 204.085C232.571 204.017 231.547 204.213 230.683 204.675C229.842 205.138 229.175 205.797 228.684 206.653C228.194 207.486 227.916 208.47 227.85 209.606C227.785 210.719 227.948 211.729 228.337 212.636C228.751 213.52 229.338 214.241 230.097 214.796C230.879 215.354 231.791 215.662 232.835 215.723C233.415 215.756 233.915 215.75 234.337 215.705C234.758 215.66 235.112 215.575 235.398 215.452C235.734 215.286 236.035 215.105 236.302 214.911C236.569 214.718 236.958 214.635 237.468 214.665C238.071 214.7 238.523 214.924 238.825 215.337C239.128 215.727 239.264 216.2 239.231 216.756C239.198 217.336 238.842 217.85 238.165 218.3C237.489 218.726 236.609 219.059 235.524 219.299C234.465 219.516 233.321 219.59 232.092 219.519C230.26 219.412 228.696 218.903 227.399 217.99C226.104 217.055 225.128 215.835 224.47 214.331C223.836 212.829 223.571 211.173 223.676 209.364C223.786 207.463 224.265 205.816 225.114 204.422C225.987 203.007 227.131 201.933 228.546 201.201C229.985 200.447 231.598 200.121 233.383 200.225Z" fill="white"/>
<path d="M243.294 201.497L251.538 201.974C252.094 202.006 252.547 202.219 252.897 202.611C253.246 203.004 253.405 203.478 253.373 204.035C253.342 204.568 253.13 205.009 252.738 205.359C252.346 205.685 251.873 205.832 251.316 205.8L243.073 205.323C242.516 205.29 242.063 205.078 241.714 204.686C241.364 204.293 241.206 203.819 241.238 203.262C241.269 202.729 241.48 202.299 241.871 201.973C242.263 201.623 242.738 201.464 243.294 201.497ZM247.268 197.364C247.871 197.399 248.346 197.636 248.692 198.075C249.064 198.492 249.232 199.002 249.197 199.605L248.301 215.083C248.282 215.407 248.324 215.677 248.428 215.893C248.555 216.11 248.72 216.27 248.924 216.375C249.15 216.481 249.391 216.542 249.646 216.557C249.924 216.573 250.182 216.541 250.419 216.462C250.658 216.359 250.928 216.317 251.229 216.334C251.554 216.353 251.835 216.521 252.073 216.837C252.334 217.154 252.449 217.58 252.418 218.113C252.38 218.762 251.99 219.275 251.247 219.651C250.527 220.028 249.761 220.193 248.95 220.146C248.463 220.118 247.92 220.051 247.321 219.947C246.747 219.82 246.202 219.591 245.686 219.259C245.194 218.905 244.794 218.393 244.483 217.723C244.173 217.054 244.051 216.151 244.117 215.015L245.023 199.363C245.058 198.76 245.284 198.273 245.701 197.902C246.143 197.509 246.665 197.33 247.268 197.364Z" fill="white"/>
<path d="M257.876 218.534C257.841 219.137 257.615 219.636 257.196 220.03C256.779 220.402 256.269 220.57 255.667 220.535C255.064 220.5 254.577 220.274 254.205 219.857C253.835 219.417 253.668 218.895 253.702 218.292L254.534 203.928C254.569 203.325 254.795 202.838 255.212 202.466C255.631 202.072 256.141 201.892 256.744 201.927C257.347 201.962 257.833 202.199 258.203 202.639C258.575 203.056 258.743 203.566 258.708 204.169L257.876 218.534ZM256.84 199.664C256.052 199.618 255.503 199.458 255.193 199.185C254.883 198.911 254.747 198.449 254.784 197.8L254.823 197.139C254.862 196.467 255.062 196.024 255.423 195.813C255.809 195.579 256.373 195.484 257.115 195.527C257.926 195.574 258.487 195.734 258.797 196.008C259.107 196.282 259.243 196.744 259.205 197.393L259.167 198.054C259.128 198.726 258.927 199.18 258.565 199.415C258.203 199.626 257.629 199.71 256.84 199.664Z" fill="white"/>
<path d="M272.326 202.48C274.042 202.579 275.32 203.014 276.16 203.784C277.022 204.555 277.581 205.553 277.836 206.778C278.115 207.98 278.213 209.312 278.128 210.773L277.612 219.677C277.577 220.28 277.351 220.779 276.932 221.173C276.515 221.545 276.005 221.713 275.403 221.678C274.8 221.643 274.312 221.417 273.941 221C273.571 220.56 273.404 220.038 273.438 219.435L273.954 210.531C273.998 209.766 273.934 209.076 273.76 208.461C273.611 207.824 273.292 207.305 272.803 206.905C272.314 206.504 271.595 206.277 270.644 206.221C269.717 206.168 268.917 206.308 268.247 206.641C267.599 206.976 267.083 207.446 266.699 208.052C266.34 208.636 266.138 209.311 266.093 210.076L265.578 218.98C265.543 219.583 265.316 220.082 264.898 220.476C264.481 220.848 263.971 221.016 263.368 220.981C262.765 220.946 262.278 220.72 261.907 220.303C261.537 219.863 261.369 219.341 261.404 218.738L262.236 204.374C262.271 203.771 262.497 203.283 262.914 202.912C263.332 202.518 263.843 202.338 264.446 202.373C265.049 202.408 265.535 202.645 265.905 203.085C266.276 203.502 266.445 204.012 266.41 204.615L266.323 206.111L265.807 205.976C266.039 205.594 266.365 205.194 266.784 204.776C267.205 204.336 267.694 203.933 268.25 203.57C268.806 203.207 269.427 202.929 270.113 202.736C270.8 202.52 271.538 202.434 272.326 202.48Z" fill="white"/>
<path d="M290.212 203.516C291.185 203.572 292.069 203.775 292.864 204.123C293.658 204.472 294.331 204.894 294.884 205.392C295.46 205.89 295.896 206.393 296.193 206.898C296.514 207.382 296.665 207.787 296.646 208.111L295.715 208.511L295.862 205.972C295.897 205.369 296.123 204.882 296.54 204.51C296.959 204.116 297.469 203.936 298.072 203.971C298.675 204.006 299.162 204.232 299.534 204.649C299.905 205.066 300.072 205.587 300.036 206.214L299.14 221.691C299.023 223.709 298.489 225.295 297.538 226.45C296.609 227.629 295.422 228.444 293.977 228.896C292.53 229.37 290.995 229.56 289.372 229.466C288.908 229.44 288.309 229.347 287.573 229.188C286.838 229.029 286.139 228.849 285.476 228.648C284.813 228.446 284.311 228.266 283.971 228.107C283.293 227.765 282.829 227.354 282.577 226.874C282.348 226.419 282.329 225.941 282.521 225.44C282.768 224.78 283.131 224.336 283.61 224.107C284.087 223.902 284.575 223.907 285.075 224.122C285.303 224.205 285.677 224.367 286.198 224.606C286.72 224.846 287.288 225.065 287.905 225.264C288.544 225.487 289.106 225.612 289.593 225.64C291.332 225.741 292.64 225.468 293.515 224.821C294.39 224.173 294.863 223.235 294.934 222.006L295.109 218.98L295.508 219.317C295.491 219.619 295.307 219.98 294.957 220.402C294.631 220.802 294.178 221.195 293.598 221.58C293.04 221.966 292.382 222.289 291.622 222.547C290.864 222.783 290.068 222.876 289.233 222.828C287.586 222.732 286.126 222.241 284.851 221.353C283.578 220.441 282.6 219.245 281.918 217.763C281.238 216.258 280.952 214.566 281.06 212.688C281.171 210.786 281.65 209.139 282.498 207.746C283.348 206.329 284.446 205.253 285.791 204.516C287.138 203.757 288.612 203.423 290.212 203.516ZM290.651 207.38C289.607 207.32 288.677 207.522 287.859 207.986C287.041 208.451 286.386 209.111 285.894 209.966C285.403 210.822 285.125 211.806 285.06 212.919C284.997 214.009 285.16 215.007 285.55 215.914C285.94 216.821 286.514 217.552 287.273 218.108C288.031 218.663 288.933 218.972 289.976 219.032C291.043 219.094 291.985 218.892 292.803 218.428C293.621 217.963 294.276 217.303 294.767 216.448C295.259 215.592 295.536 214.619 295.599 213.53C295.664 212.417 295.501 211.407 295.112 210.5C294.722 209.593 294.148 208.862 293.389 208.306C292.63 207.751 291.717 207.442 290.651 207.38Z" fill="white"/>
<path d="M321.972 205.355C323.294 205.432 324.433 205.637 325.391 205.972C326.372 206.308 327.115 206.746 327.618 207.287C328.147 207.806 328.391 208.414 328.35 209.109C328.324 209.573 328.159 210.006 327.856 210.407C327.555 210.785 327.138 210.959 326.605 210.928C326.234 210.906 325.923 210.842 325.674 210.734C325.449 210.605 325.248 210.454 325.072 210.281C324.896 210.108 324.684 209.944 324.437 209.79C324.213 209.638 323.86 209.513 323.377 209.415C322.919 209.295 322.574 209.229 322.342 209.215C321.159 209.147 320.136 209.343 319.271 209.805C318.43 210.268 317.764 210.928 317.272 211.783C316.782 212.616 316.504 213.6 316.438 214.736C316.374 215.849 316.536 216.859 316.926 217.766C317.34 218.651 317.926 219.371 318.685 219.927C319.467 220.484 320.38 220.793 321.423 220.853C322.003 220.887 322.504 220.881 322.925 220.835C323.347 220.79 323.7 220.706 323.987 220.583C324.322 220.416 324.623 220.236 324.891 220.042C325.158 219.848 325.546 219.766 326.056 219.795C326.659 219.83 327.112 220.054 327.413 220.467C327.717 220.857 327.852 221.33 327.82 221.886C327.786 222.466 327.431 222.981 326.753 223.43C326.077 223.856 325.197 224.189 324.113 224.429C323.053 224.647 321.909 224.72 320.68 224.649C318.848 224.543 317.284 224.033 315.988 223.121C314.692 222.185 313.716 220.965 313.059 219.461C312.424 217.959 312.16 216.303 312.264 214.495C312.375 212.593 312.854 210.946 313.702 209.552C314.575 208.137 315.719 207.064 317.134 206.331C318.574 205.577 320.187 205.252 321.972 205.355Z" fill="white"/>
<path d="M335.261 223.015C335.226 223.618 334.988 224.116 334.546 224.509C334.129 224.881 333.619 225.049 333.017 225.014C332.437 224.981 331.961 224.755 331.59 224.338C331.22 223.898 331.052 223.376 331.087 222.774L332.332 201.279C332.367 200.676 332.593 200.189 333.01 199.817C333.451 199.424 333.974 199.245 334.577 199.28C335.179 199.315 335.654 199.552 336.001 199.99C336.373 200.407 336.541 200.917 336.506 201.52L335.261 223.015Z" fill="white"/>
<path d="M342.439 223.184C342.434 223.788 342.233 224.297 341.834 224.712C341.436 225.103 340.935 225.297 340.331 225.292C339.727 225.287 339.23 225.085 338.838 224.687C338.447 224.266 338.254 223.753 338.259 223.149L338.378 208.761C338.383 208.157 338.585 207.659 338.983 207.267C339.381 206.853 339.882 206.648 340.486 206.653C341.09 206.658 341.588 206.871 341.979 207.292C342.371 207.69 342.564 208.192 342.559 208.795L342.439 223.184ZM340.47 204.388C339.681 204.381 339.124 204.249 338.801 203.991C338.478 203.733 338.319 203.278 338.325 202.628L338.33 201.966C338.336 201.293 338.514 200.841 338.864 200.612C339.238 200.359 339.796 200.236 340.54 200.242C341.352 200.249 341.92 200.382 342.243 200.64C342.567 200.898 342.725 201.352 342.72 202.003L342.714 202.665C342.709 203.338 342.531 203.801 342.18 204.054C341.83 204.283 341.26 204.395 340.47 204.388Z" fill="white"/>
<path d="M354.156 224.781C352.195 225.014 350.441 224.813 348.892 224.179C347.363 223.518 346.123 222.531 345.172 221.217C344.243 219.901 343.674 218.355 343.463 216.579C343.216 214.503 343.422 212.689 344.079 211.137C344.757 209.56 345.73 208.298 346.998 207.352C348.265 206.407 349.66 205.843 351.183 205.662C352.359 205.523 353.495 205.633 354.59 205.994C355.709 206.353 356.722 206.911 357.631 207.668C358.537 208.402 359.286 209.296 359.879 210.348C360.495 211.398 360.877 212.545 361.025 213.791C361.068 214.347 360.902 214.823 360.528 215.218C360.154 215.613 359.69 215.844 359.136 215.91L345.92 217.48L344.472 214.143L357.169 212.635L356.49 213.417L356.379 212.483C356.253 211.82 355.94 211.249 355.438 210.77C354.96 210.289 354.38 209.937 353.699 209.714C353.038 209.465 352.35 209.383 351.635 209.468C350.943 209.55 350.308 209.719 349.73 209.975C349.153 210.231 348.671 210.604 348.284 211.094C347.898 211.584 347.622 212.214 347.456 212.982C347.29 213.75 347.274 214.699 347.408 215.829C347.556 217.075 347.936 218.106 348.548 218.922C349.18 219.712 349.927 220.29 350.789 220.655C351.671 220.995 352.573 221.11 353.496 221C354.349 220.899 355.022 220.749 355.513 220.55C356.004 220.352 356.388 220.142 356.666 219.922C356.964 219.676 357.232 219.469 357.469 219.3C357.86 219.043 358.239 218.893 358.608 218.849C359.116 218.789 359.552 218.913 359.916 219.22C360.303 219.525 360.524 219.908 360.578 220.369C360.652 220.992 360.397 221.596 359.811 222.18C359.272 222.758 358.483 223.308 357.446 223.829C356.406 224.327 355.309 224.644 354.156 224.781Z" fill="white"/>
<path d="M367.915 201.809C369.554 201.293 370.903 201.245 371.961 201.666C373.042 202.08 373.919 202.815 374.592 203.869C375.28 204.894 375.845 206.104 376.285 207.499L378.967 216.006C379.148 216.581 379.114 217.128 378.863 217.646C378.605 218.141 378.188 218.479 377.612 218.661C377.036 218.843 376.501 218.805 376.005 218.547C375.503 218.267 375.161 217.839 374.98 217.263L372.297 208.757C372.067 208.026 371.761 207.404 371.38 206.891C371.014 206.348 370.532 205.977 369.933 205.776C369.334 205.575 368.58 205.618 367.672 205.904C366.786 206.184 366.089 206.599 365.58 207.149C365.094 207.692 364.779 208.314 364.635 209.017C364.507 209.691 364.558 210.393 364.788 211.124L367.47 219.631C367.652 220.207 367.617 220.753 367.366 221.271C367.108 221.766 366.692 222.105 366.116 222.286C365.54 222.468 365.004 222.43 364.509 222.172C364.006 221.892 363.665 221.464 363.483 220.888L359.156 207.165C358.974 206.589 359.012 206.053 359.27 205.558C359.521 205.041 359.934 204.691 360.51 204.51C361.086 204.328 361.626 204.377 362.128 204.657C362.623 204.915 362.962 205.332 363.143 205.908L363.594 207.337L363.064 207.394C363.144 206.955 363.307 206.465 363.551 205.925C363.787 205.364 364.101 204.814 364.492 204.277C364.883 203.74 365.364 203.259 365.937 202.835C366.503 202.389 367.162 202.047 367.915 201.809Z" fill="white"/>
<path d="M374.606 200.004L382.012 196.352C382.511 196.105 383.01 196.066 383.508 196.235C384.006 196.404 384.378 196.739 384.624 197.239C384.861 197.718 384.894 198.206 384.725 198.704C384.546 199.181 384.206 199.542 383.707 199.789L376.301 203.441C375.801 203.687 375.302 203.726 374.805 203.557C374.307 203.388 373.935 203.054 373.688 202.554C373.452 202.075 373.423 201.597 373.603 201.12C373.772 200.622 374.106 200.25 374.606 200.004ZM376.023 194.449C376.565 194.182 377.095 194.154 377.613 194.364C378.142 194.544 378.54 194.904 378.807 195.446L385.664 209.351C385.808 209.643 385.978 209.856 386.174 209.993C386.392 210.118 386.615 210.177 386.844 210.168C387.093 210.148 387.332 210.082 387.561 209.969C387.811 209.846 388.02 209.691 388.187 209.505C388.344 209.298 388.558 209.128 388.829 208.994C389.12 208.851 389.448 208.858 389.81 209.015C390.194 209.163 390.504 209.476 390.74 209.955C391.028 210.539 390.941 211.177 390.48 211.87C390.04 212.554 389.456 213.075 388.726 213.434C388.289 213.65 387.784 213.86 387.212 214.065C386.65 214.238 386.062 214.308 385.45 214.273C384.848 214.208 384.247 213.96 383.646 213.531C383.046 213.102 382.495 212.377 381.991 211.356L375.057 197.295C374.79 196.753 374.746 196.218 374.926 195.689C375.116 195.13 375.482 194.716 376.023 194.449Z" fill="white"/>
<path d="M390.64 209.303C390.266 209.163 389.946 208.875 389.68 208.438C389.414 208.001 389.418 207.466 389.693 206.833C389.872 206.433 390.147 206.136 390.52 205.941C390.88 205.727 391.334 205.674 391.882 205.781C392.817 205.964 393.696 206.003 394.521 205.896C395.345 205.79 396.219 205.426 397.145 204.804C397.421 204.59 397.713 204.338 398.021 204.047C398.316 203.736 398.511 203.381 398.606 202.982C398.708 202.55 398.59 202.083 398.253 201.582C397.968 201.158 397.596 200.918 397.139 200.861C396.681 200.805 396.153 200.852 395.555 201.003C394.975 201.141 394.345 201.327 393.663 201.561C392.949 201.789 392.202 202.011 391.424 202.227C390.664 202.43 389.914 202.542 389.174 202.564C388.42 202.567 387.691 202.4 386.988 202.061C386.284 201.722 385.647 201.129 385.077 200.281C384.429 199.317 384.148 198.317 384.234 197.279C384.32 196.242 384.664 195.255 385.266 194.318C385.887 193.369 386.67 192.576 387.615 191.941C388.212 191.54 388.89 191.196 389.649 190.909C390.396 190.603 391.177 190.414 391.995 190.339C392.8 190.246 393.58 190.324 394.335 190.572C394.741 190.718 395.1 190.981 395.41 191.36C395.721 191.739 395.784 192.228 395.6 192.828C395.466 193.254 395.2 193.586 394.802 193.826C394.39 194.047 393.981 194.126 393.575 194.063C392.963 193.859 392.292 193.82 391.565 193.945C390.857 194.058 390.146 194.354 389.433 194.833C389.144 195.028 388.852 195.28 388.557 195.59C388.268 195.868 388.076 196.207 387.981 196.607C387.873 196.988 387.981 197.419 388.305 197.901C388.603 198.344 388.987 198.603 389.458 198.679C389.915 198.735 390.443 198.688 391.042 198.537C391.647 198.355 392.281 198.152 392.943 197.931C393.625 197.696 394.336 197.484 395.076 197.294C395.816 197.105 396.553 197.015 397.288 197.025C398.022 197.035 398.732 197.215 399.416 197.567C400.087 197.899 400.708 198.49 401.278 199.338C401.939 200.321 402.214 201.354 402.102 202.436C401.99 203.519 401.624 204.535 401.003 205.484C400.369 206.415 399.599 207.184 398.693 207.793C397.556 208.558 396.289 209.13 394.892 209.509C393.483 209.869 392.065 209.8 390.64 209.303Z" fill="white"/>
<path d="M412.389 167.985C412.731 167.575 413.189 167.351 413.763 167.316C414.319 167.265 414.838 167.44 415.32 167.841C415.445 167.945 415.553 168.051 415.646 168.158C415.72 168.25 415.787 168.351 415.846 168.461L423.466 181.743C423.719 182.165 423.809 182.618 423.738 183.103C423.649 183.573 423.429 183.964 423.078 184.277C422.537 184.854 421.819 185.027 420.924 184.795L411.087 181.091L411.693 180.418L417.223 189.239C417.613 190.078 417.573 190.815 417.104 191.452C416.875 191.835 416.53 192.123 416.069 192.313C415.605 192.471 415.143 192.464 414.682 192.291L400.24 187.202C399.984 187.11 399.749 186.975 399.535 186.796C399.107 186.44 398.842 185.977 398.741 185.409C398.639 184.841 398.797 184.307 399.213 183.808C399.495 183.469 399.828 183.232 400.212 183.098C400.596 182.964 401.01 182.992 401.457 183.182L412.936 187.256L412.325 187.88L407.741 179.937C407.318 179.102 407.397 178.336 407.976 177.64C408.303 177.247 408.638 177.027 408.98 176.979C409.319 176.899 409.701 176.93 410.126 177.073L418.768 180.143L418.206 181.035L412.113 170.385C411.614 169.606 411.706 168.806 412.389 167.985Z" fill="white"/>
<path d="M428.674 171.71C429.193 172.019 429.53 172.451 429.687 173.004C429.824 173.545 429.738 174.075 429.428 174.594C429.119 175.113 428.693 175.44 428.152 175.577C427.591 175.702 427.051 175.61 426.532 175.3L414.175 167.928C413.657 167.618 413.329 167.193 413.192 166.652C413.036 166.098 413.112 165.562 413.421 165.044C413.731 164.525 414.166 164.203 414.727 164.079C415.269 163.942 415.799 164.028 416.317 164.337L428.674 171.71ZM411.459 163.913C411.054 164.592 410.659 165.005 410.273 165.153C409.887 165.301 409.415 165.209 408.856 164.876L408.288 164.537C407.709 164.192 407.409 163.81 407.388 163.392C407.359 162.942 407.535 162.397 407.916 161.759C408.333 161.061 408.734 160.638 409.12 160.489C409.506 160.341 409.978 160.434 410.537 160.767L411.105 161.106C411.684 161.451 411.993 161.839 412.034 162.269C412.055 162.687 411.863 163.235 411.459 163.913Z" fill="white"/>
<path d="M415.637 161.946L419.211 154.502C419.452 153.999 419.821 153.661 420.317 153.487C420.812 153.313 421.312 153.346 421.814 153.588C422.296 153.819 422.624 154.182 422.798 154.678C422.951 155.164 422.907 155.658 422.666 156.161L419.092 163.604C418.851 164.107 418.482 164.445 417.986 164.619C417.49 164.794 416.991 164.76 416.489 164.519C416.007 164.287 415.69 163.929 415.536 163.443C415.362 162.947 415.396 162.448 415.637 161.946ZM413.325 156.7C413.586 156.156 413.986 155.806 414.523 155.652C415.05 155.467 415.586 155.505 416.13 155.767L430.106 162.477C430.4 162.618 430.665 162.681 430.904 162.667C431.153 162.632 431.364 162.54 431.539 162.392C431.723 162.223 431.87 162.023 431.981 161.793C432.102 161.541 432.17 161.291 432.187 161.041C432.183 160.782 432.246 160.516 432.377 160.244C432.518 159.951 432.779 159.754 433.162 159.655C433.555 159.534 433.992 159.589 434.474 159.821C435.06 160.102 435.386 160.658 435.451 161.488C435.526 162.297 435.388 163.068 435.036 163.801C434.825 164.24 434.558 164.717 434.233 165.232C433.898 165.715 433.479 166.132 432.976 166.483C432.461 166.803 431.836 166.979 431.099 167.012C430.361 167.044 429.48 166.814 428.454 166.322L414.321 159.536C413.776 159.274 413.411 158.88 413.226 158.353C413.031 157.796 413.063 157.244 413.325 156.7Z" fill="white"/>
<path d="M421.627 145.01C422.119 143.412 422.836 142.308 423.777 141.699C424.725 141.068 425.824 140.775 427.074 140.82C428.302 140.858 429.615 141.093 431.014 141.524L439.537 144.151C440.114 144.329 440.544 144.668 440.827 145.169C441.088 145.662 441.13 146.198 440.952 146.775C440.774 147.352 440.438 147.771 439.945 148.032C439.429 148.286 438.883 148.324 438.305 148.146L429.782 145.519C429.05 145.293 428.367 145.18 427.736 145.18C427.082 145.173 426.505 145.347 426.006 145.704C425.508 146.061 425.125 146.672 424.858 147.537C424.598 148.381 424.553 149.157 424.724 149.866C424.894 150.575 425.231 151.177 425.734 151.672C426.223 152.139 426.833 152.485 427.565 152.71L436.089 155.338C436.666 155.516 437.096 155.855 437.379 156.355C437.64 156.849 437.682 157.384 437.504 157.961C437.326 158.539 436.99 158.958 436.496 159.219C435.981 159.473 435.434 159.511 434.857 159.333L414.281 152.991C413.704 152.813 413.285 152.477 413.024 151.983C412.741 151.483 412.688 150.944 412.866 150.367C413.044 149.79 413.391 149.374 413.907 149.12C414.4 148.859 414.936 148.817 415.513 148.995L423.77 151.54L423.516 152.009C423.2 151.693 422.886 151.292 422.574 150.807C422.239 150.315 421.962 149.756 421.742 149.129C421.522 148.502 421.397 147.844 421.367 147.154C421.314 146.457 421.401 145.743 421.627 145.01Z" fill="white"/>
<path d="M425.023 131.042L425.537 122.801C425.572 122.244 425.786 121.792 426.18 121.444C426.574 121.097 427.05 120.94 427.606 120.975C428.139 121.008 428.58 121.222 428.927 121.616C429.252 122.008 429.397 122.483 429.362 123.039L428.848 131.28C428.813 131.837 428.599 132.289 428.204 132.636C427.81 132.984 427.335 133.141 426.779 133.106C426.246 133.073 425.817 132.86 425.492 132.467C425.144 132.073 424.988 131.598 425.023 131.042ZM420.908 127.05C420.946 126.447 421.185 125.973 421.626 125.628C422.044 125.259 422.555 125.093 423.158 125.13L438.631 126.096C438.956 126.117 439.226 126.075 439.442 125.972C439.659 125.846 439.821 125.682 439.927 125.479C440.034 125.253 440.095 125.013 440.111 124.758C440.129 124.479 440.098 124.221 440.02 123.984C439.918 123.745 439.877 123.475 439.896 123.173C439.916 122.849 440.085 122.568 440.402 122.332C440.721 122.073 441.147 121.96 441.68 121.993C442.329 122.034 442.84 122.426 443.212 123.171C443.586 123.892 443.748 124.659 443.697 125.47C443.667 125.957 443.598 126.5 443.491 127.098C443.362 127.672 443.13 128.216 442.795 128.73C442.439 129.22 441.926 129.618 441.255 129.925C440.584 130.233 439.681 130.351 438.545 130.28L422.897 129.303C422.294 129.265 421.808 129.037 421.439 128.619C421.048 128.175 420.871 127.652 420.908 127.05Z" fill="white"/>
<path d="M424.211 113.065C424.066 111.399 424.315 110.107 424.958 109.188C425.599 108.247 426.507 107.562 427.682 107.133C428.834 106.707 430.139 106.43 431.597 106.303L440.482 105.531C441.084 105.479 441.61 105.631 442.061 105.988C442.488 106.348 442.728 106.828 442.78 107.43C442.833 108.031 442.679 108.546 442.32 108.973C441.938 109.403 441.446 109.644 440.844 109.696L431.959 110.468C431.195 110.535 430.52 110.687 429.935 110.924C429.326 111.163 428.858 111.542 428.53 112.06C428.202 112.578 428.077 113.289 428.156 114.191C428.232 115.07 428.482 115.806 428.907 116.399C429.331 116.992 429.87 117.423 430.523 117.692C431.151 117.941 431.847 118.032 432.61 117.966L441.496 117.193C442.097 117.141 442.623 117.294 443.074 117.651C443.502 118.01 443.742 118.49 443.794 119.092C443.846 119.694 443.693 120.208 443.334 120.636C442.951 121.065 442.459 121.306 441.858 121.358L420.407 123.223C419.806 123.275 419.291 123.121 418.864 122.762C418.413 122.405 418.161 121.926 418.109 121.324C418.057 120.722 418.222 120.207 418.604 119.777C418.963 119.35 419.444 119.11 420.045 119.057L428.653 118.309L428.594 118.839C428.183 118.665 427.741 118.412 427.27 118.08C426.775 117.75 426.307 117.336 425.868 116.838C425.428 116.34 425.064 115.777 424.777 115.149C424.466 114.523 424.277 113.829 424.211 113.065Z" fill="white"/>
<path d="M439.912 93.7557C440.452 95.6546 440.531 97.419 440.15 99.0488C439.74 100.663 438.961 102.043 437.815 103.191C436.662 104.315 435.225 105.123 433.505 105.612C431.494 106.184 429.671 106.268 428.034 105.864C426.37 105.444 424.97 104.683 423.835 103.581C422.701 102.479 421.924 101.191 421.504 99.7166C421.18 98.5772 421.11 97.4382 421.293 96.2994C421.47 95.1383 421.86 94.0492 422.464 93.0321C423.046 92.0214 423.81 91.1402 424.755 90.3883C425.694 89.6141 426.766 89.0554 427.973 88.7122C428.515 88.5821 429.011 88.6704 429.461 88.9772C429.91 89.284 430.211 89.7054 430.364 90.2416L434.005 103.043L430.94 105.001L427.442 92.7029L428.322 93.2494L427.417 93.5068C426.782 93.7358 426.268 94.1356 425.875 94.7062C425.475 95.2545 425.219 95.8828 425.107 96.5909C424.966 97.2831 424.993 97.9754 425.19 98.668C425.381 99.3382 425.648 99.9383 425.992 100.468C426.336 100.998 426.781 101.415 427.326 101.719C427.871 102.023 428.536 102.196 429.321 102.238C430.106 102.28 431.046 102.146 432.14 101.834C433.347 101.491 434.304 100.953 435.014 100.22C435.694 99.4712 436.146 98.6423 436.371 97.7332C436.566 96.8082 436.537 95.8989 436.283 95.0053C436.048 94.1787 435.793 93.5388 435.52 93.0854C435.246 92.6321 434.978 92.2856 434.717 92.046C434.427 91.7904 434.18 91.5588 433.976 91.3512C433.66 91.0063 433.452 90.6551 433.35 90.2977C433.21 89.8062 433.263 89.3564 433.509 88.9483C433.749 88.5179 434.093 88.2391 434.539 88.112C435.143 87.9404 435.779 88.0975 436.448 88.5832C437.105 89.0242 437.773 89.7157 438.451 90.6577C439.107 91.606 439.594 92.6386 439.912 93.7557Z" fill="white"/>
<path d="M430.565 78.4145C430.407 78.7818 430.104 79.088 429.655 79.3331C429.206 79.5783 428.672 79.549 428.053 79.2453C427.662 79.0481 427.378 78.7587 427.201 78.3771C427.004 78.0076 426.972 77.5517 427.104 77.0093C427.331 76.0841 427.41 75.2073 427.343 74.3791C427.275 73.5509 426.952 72.6602 426.374 71.707C426.173 71.4212 425.934 71.1176 425.658 70.7963C425.362 70.4871 425.016 70.2756 424.621 70.162C424.194 70.0406 423.723 70.1365 423.207 70.4498C422.77 70.7148 422.513 71.0746 422.435 71.529C422.358 71.9835 422.38 72.5132 422.503 73.1181C422.613 73.7031 422.769 74.3417 422.972 75.0338C423.167 75.7578 423.354 76.5137 423.533 77.3016C423.7 78.0696 423.777 78.824 423.765 79.565C423.733 80.318 423.531 81.038 423.16 81.725C422.789 82.4119 422.166 83.0204 421.293 83.5505C420.3 84.1528 419.287 84.3868 418.255 84.2524C417.222 84.118 416.253 83.7284 415.345 83.0835C414.426 82.4188 413.671 81.5999 413.081 80.6269C412.707 80.0113 412.395 79.3177 412.144 78.5461C411.874 77.7866 411.721 76.9967 411.685 76.1763C411.629 75.3679 411.743 74.5926 412.026 73.8503C412.191 73.4512 412.47 73.1052 412.863 72.8125C413.256 72.5198 413.748 72.4796 414.339 72.6918C414.758 72.8451 415.078 73.1264 415.299 73.5356C415.5 73.9569 415.56 74.3688 415.478 74.7716C415.246 75.3742 415.175 76.0417 415.267 76.7742C415.346 77.4869 415.608 78.2106 416.054 78.9453C416.235 79.2432 416.473 79.5468 416.769 79.856C417.034 80.1575 417.363 80.365 417.758 80.4786C418.133 80.6042 418.569 80.5165 419.066 80.2153C419.522 79.9382 419.799 79.5664 419.897 79.0999C419.974 78.6454 419.952 78.1157 419.829 77.5108C419.675 76.8982 419.502 76.2557 419.312 75.5834C419.109 74.8913 418.931 74.1712 418.776 73.423C418.621 72.6749 418.565 71.9343 418.609 71.2011C418.654 70.468 418.867 69.7678 419.25 69.1008C419.614 68.4457 420.232 67.8532 421.106 67.3231C422.119 66.7087 423.163 66.4825 424.24 66.6446C425.316 66.8066 426.314 67.22 427.233 67.8848C428.133 68.5615 428.866 69.3666 429.432 70.2999C430.143 71.4715 430.655 72.7637 430.968 74.1762C431.262 75.6008 431.128 77.0136 430.565 78.4145Z" fill="white"/>
<path d="M401.098 64.6719C400.699 64.2185 400.526 63.7056 400.579 63.1329C400.615 62.5757 400.859 62.0976 401.312 61.6987L407.956 55.8529C409.804 54.2265 411.722 53.4521 413.708 53.5296C415.695 53.6071 417.539 54.6137 419.242 56.5492C420.945 58.4848 421.709 60.4426 421.533 62.4227C421.342 64.3853 420.322 66.1798 418.474 67.8062L411.83 73.652C411.377 74.0509 410.872 74.2326 410.314 74.197C409.74 74.1767 409.253 73.9399 408.854 73.4865C408.455 73.0332 408.282 72.5202 408.335 71.9475C408.371 71.3903 408.615 70.9122 409.068 70.5133L415.712 64.6675C416.776 63.7316 417.362 62.798 417.471 61.8669C417.562 60.9512 417.194 60.0225 416.365 59.0809C415.521 58.1218 414.639 57.6293 413.719 57.6035C412.782 57.593 411.782 58.0557 410.718 58.9916L404.074 64.8374C403.621 65.2363 403.116 65.418 402.558 65.3824C401.984 65.3621 401.497 65.1253 401.098 64.6719Z" fill="white"/>
<path d="M392.279 57.9652C390.985 56.9817 390.081 55.7707 389.57 54.3321C389.026 52.898 388.893 51.3828 389.173 49.7865C389.433 48.1761 390.14 46.6126 391.292 45.096C392.444 43.5793 393.768 42.4702 395.263 41.7686C396.726 41.0714 398.219 40.7763 399.742 40.8832C401.233 40.9945 402.607 41.5278 403.864 42.4832C404.604 43.0452 405.206 43.6922 405.671 44.4244C406.136 45.1566 406.477 45.8973 406.696 46.6465C406.896 47.3817 406.994 48.0397 406.99 48.6203C406.954 49.2054 406.838 49.6274 406.641 49.8864L405.507 49.5938L411.05 42.2972C411.415 41.8163 411.874 41.5381 412.427 41.4625C412.995 41.3684 413.519 41.504 414 41.8693C414.481 42.2346 414.759 42.6938 414.835 43.2471C414.91 43.8004 414.758 44.3267 414.379 44.8261L401.46 61.8329C401.095 62.3138 400.636 62.592 400.083 62.6676C399.515 62.7617 398.991 62.6261 398.51 62.2608C398.029 61.8955 397.758 61.427 397.697 60.8552C397.621 60.302 397.766 59.7849 398.131 59.304L399.164 57.9446L399.446 58.5525C399.263 58.793 398.916 58.9813 398.404 59.1175C397.878 59.2723 397.267 59.3475 396.57 59.3432C395.859 59.3575 395.133 59.2578 394.391 59.0442C393.63 58.8166 392.927 58.4569 392.279 57.9652ZM395.014 55.2295C395.827 55.8477 396.694 56.1851 397.613 56.2418C398.533 56.2986 399.435 56.109 400.321 55.6731C401.173 55.2416 401.937 54.582 402.611 53.6942C403.272 52.8249 403.709 51.9031 403.924 50.9289C404.107 49.9591 404.047 49.039 403.746 48.1685C403.445 47.2979 402.887 46.5536 402.073 45.9354C401.26 45.3172 400.402 44.9868 399.501 44.9441C398.582 44.8874 397.689 45.084 396.822 45.5339C395.922 45.9883 395.143 46.6502 394.482 47.5195C393.808 48.4073 393.387 49.3268 393.218 50.2781C393.017 51.2338 393.067 52.147 393.369 53.0175C393.651 53.874 394.2 54.6113 395.014 55.2295Z" fill="white"/>
<path d="M378.235 49.7454C376.767 49.0473 375.635 48.0465 374.84 46.7428C374.015 45.4501 373.576 43.994 373.523 42.3743C373.449 40.7446 373.821 39.0697 374.638 37.3497C375.456 35.6296 376.525 34.2733 377.846 33.2809C379.135 32.2995 380.537 31.7054 382.049 31.4988C383.531 31.3031 384.985 31.5444 386.412 32.2225C387.251 32.6214 387.972 33.1318 388.577 33.7535C389.182 34.3753 389.667 35.0305 390.034 35.7193C390.38 36.3981 390.611 37.0221 390.726 37.5912C390.81 38.1714 390.782 38.6083 390.643 38.902L389.473 38.8473L393.407 30.572C393.666 30.0266 394.059 29.6603 394.585 29.4733C395.121 29.2652 395.662 29.2909 396.208 29.5502C396.753 29.8095 397.119 30.2022 397.306 30.7283C397.493 31.2544 397.452 31.8007 397.183 32.3671L388.013 51.6551C387.754 52.2005 387.361 52.5667 386.835 52.7538C386.299 52.9618 385.758 52.9362 385.213 52.6769C384.667 52.4176 384.306 52.0144 384.129 51.4673C383.942 50.9412 383.978 50.4054 384.237 49.86L384.97 48.3182L385.37 48.8557C385.241 49.1284 384.939 49.3837 384.466 49.6217C383.983 49.8806 383.4 50.0792 382.717 50.2175C382.024 50.3767 381.293 50.4275 380.523 50.3701C379.732 50.3027 378.969 50.0945 378.235 49.7454ZM380.353 46.5087C381.276 46.9475 382.193 47.1007 383.104 46.9683C384.016 46.8359 384.861 46.4659 385.638 45.8583C386.385 45.2617 386.997 44.4599 387.476 43.453C387.945 42.4671 388.185 41.4754 388.196 40.4778C388.177 39.4912 387.93 38.6026 387.458 37.812C386.985 37.0214 386.287 36.4067 385.364 35.9679C384.441 35.5291 383.534 35.3809 382.643 35.5232C381.732 35.6556 380.898 36.0306 380.141 36.6482C379.354 37.2768 378.726 38.0841 378.257 39.07C377.778 40.0768 377.554 41.0631 377.583 42.0287C377.582 43.0053 377.817 43.889 378.29 44.6795C378.742 45.4602 379.43 46.0699 380.353 46.5087Z" fill="white"/>
<path d="M356.882 33.133C357.335 31.283 358.152 29.7495 359.335 28.5324C360.489 27.3324 361.862 26.5087 363.454 26.0613C365.024 25.6084 366.666 25.5918 368.381 26.0113C370.095 26.4309 371.555 27.2066 372.761 28.3386C373.944 29.4649 374.782 30.8297 375.274 32.4327C375.739 34.0528 375.744 35.7878 375.292 37.6378C374.839 39.4879 374.035 41.0129 372.881 42.2129C371.698 43.43 370.322 44.265 368.753 44.7179C367.155 45.1878 365.499 45.213 363.785 44.7934C362.07 44.3738 360.624 43.5896 359.447 42.4406C358.241 41.3087 357.406 39.9327 356.942 38.3126C356.449 36.7096 356.429 34.983 356.882 33.133ZM360.943 34.1267C360.661 35.2774 360.655 36.328 360.925 37.2787C361.166 38.2464 361.624 39.0638 362.298 39.7308C362.949 40.3923 363.748 40.839 364.696 41.0708C365.643 41.3027 366.57 41.2783 367.475 40.9978C368.358 40.7117 369.142 40.198 369.825 39.4566C370.481 38.7322 370.949 37.7948 371.231 36.6441C371.507 35.5161 371.524 34.4682 371.283 33.5005C371.013 32.5498 370.553 31.7437 369.902 31.0822C369.228 30.4152 368.417 29.9658 367.47 29.7339C366.522 29.502 365.607 29.5291 364.724 29.8152C363.818 30.0958 363.038 30.5982 362.382 31.3226C361.699 32.064 361.219 32.9987 360.943 34.1267Z" fill="white"/>
<path d="M354.676 24.012C355.279 24.0587 355.761 24.2942 356.124 24.7185C356.486 25.1658 356.643 25.6906 356.596 26.2927L355.482 40.6384C355.436 41.2405 355.2 41.7231 354.776 42.0862C354.35 42.4724 353.836 42.6422 353.234 42.5955C352.632 42.5487 352.15 42.3017 351.789 41.8543C351.426 41.43 351.267 40.9169 351.314 40.3148L351.568 37.0497L351.63 39.3958C351.332 39.9318 350.97 40.3929 350.544 40.7792C350.093 41.1868 349.602 41.5098 349.071 41.7481C348.538 42.0096 347.977 42.1874 347.387 42.2814C346.798 42.3754 346.213 42.3999 345.634 42.3549C344.94 42.301 344.376 42.0592 343.943 41.6296C343.488 41.1982 343.281 40.7162 343.322 40.1836C343.381 39.4194 343.621 38.8789 344.042 38.5621C344.461 38.2685 344.902 38.1396 345.365 38.1756C345.805 38.2097 346.204 38.3222 346.562 38.5131C346.896 38.7022 347.295 38.8147 347.759 38.8506C348.175 38.883 348.612 38.8121 349.068 38.6378C349.499 38.4849 349.916 38.2144 350.319 37.8264C350.699 37.4365 351.029 36.938 351.309 36.3307C351.564 35.7448 351.724 35.035 351.789 34.2014L352.428 25.9691C352.475 25.367 352.711 24.8728 353.137 24.4865C353.561 24.1234 354.074 23.9653 354.676 24.012Z" fill="white"/>
<path d="M342.141 41.5413L333.898 41.064C333.341 41.0317 332.888 40.8194 332.539 40.4269C332.189 40.0344 332.031 39.5599 332.063 39.0034C332.094 38.4701 332.306 38.0286 332.698 37.6791C333.089 37.3528 333.563 37.2057 334.119 37.238L342.363 37.7153C342.919 37.7476 343.372 37.9599 343.722 38.3524C344.071 38.7449 344.23 39.2194 344.198 39.7759C344.167 40.3092 343.956 40.739 343.565 41.0654C343.172 41.4149 342.698 41.5735 342.141 41.5413ZM338.168 45.6735C337.565 45.6386 337.09 45.4017 336.743 44.9628C336.372 44.5458 336.204 44.0359 336.238 43.433L337.135 27.9551C337.154 27.6305 337.111 27.3605 337.007 27.1451C336.88 26.9283 336.715 26.7675 336.512 26.6627C336.285 26.5565 336.044 26.4961 335.789 26.4813C335.511 26.4652 335.253 26.4968 335.016 26.5761C334.777 26.6786 334.507 26.7211 334.206 26.7037C333.881 26.6849 333.6 26.5174 333.363 26.2012C333.102 25.8836 332.987 25.4582 333.018 24.9249C333.055 24.2756 333.446 23.7631 334.189 23.3873C334.908 23.0102 335.674 22.8452 336.486 22.8922C336.973 22.9204 337.516 22.9867 338.114 23.0912C338.689 23.2175 339.234 23.4468 339.75 23.7792C340.241 24.1333 340.642 24.6451 340.952 25.3145C341.262 25.9839 341.384 26.8867 341.319 28.0229L340.412 43.6747C340.377 44.2776 340.151 44.7647 339.734 45.1361C339.293 45.5293 338.771 45.7084 338.168 45.6735Z" fill="white"/>
<path d="M320.844 40.308L312.601 39.8306C312.044 39.7984 311.591 39.586 311.242 39.1935C310.892 38.801 310.734 38.3265 310.766 37.77C310.797 37.2367 311.009 36.7953 311.401 36.4458C311.792 36.1194 312.266 35.9724 312.823 36.0046L321.066 36.482C321.622 36.5142 322.075 36.7266 322.425 37.1191C322.774 37.5115 322.933 37.986 322.901 38.5425C322.87 39.0759 322.659 39.5057 322.268 39.832C321.875 40.1815 321.401 40.3402 320.844 40.308ZM316.871 44.4402C316.268 44.4052 315.793 44.1684 315.446 43.7295C315.075 43.3125 314.907 42.8025 314.942 42.1996L315.838 26.7218C315.857 26.3972 315.814 26.1271 315.71 25.9117C315.583 25.695 315.418 25.5342 315.215 25.4294C314.988 25.3232 314.747 25.2627 314.492 25.2479C314.214 25.2318 313.956 25.2634 313.719 25.3427C313.481 25.4453 313.211 25.4878 312.909 25.4703C312.584 25.4515 312.303 25.284 312.066 24.9678C311.805 24.6503 311.69 24.2248 311.721 23.6915C311.759 23.0422 312.149 22.5297 312.892 22.154C313.612 21.7769 314.377 21.6118 315.189 21.6588C315.676 21.687 316.219 21.7534 316.818 21.8578C317.392 21.9842 317.937 22.2135 318.453 22.5458C318.944 22.9 319.345 23.4118 319.655 24.0812C319.965 24.7506 320.088 25.6534 320.022 26.7896L319.115 42.4413C319.08 43.0442 318.855 43.5313 318.438 43.9027C317.996 44.2959 317.474 44.4751 316.871 44.4402Z" fill="white"/>
<path d="M299.444 39.7666C297.774 39.6699 296.531 39.2373 295.715 38.4688C294.876 37.6989 294.328 36.7017 294.074 35.4772C293.817 34.2758 293.732 32.9447 293.816 31.4839L294.332 22.5798C294.367 21.9769 294.594 21.4781 295.012 21.0836C295.429 20.7122 295.939 20.544 296.542 20.5789C297.145 20.6138 297.632 20.8398 298.003 21.2568C298.373 21.697 298.541 22.2186 298.506 22.8215L297.99 31.7256C297.946 32.4908 297.999 33.1802 298.15 33.7938C298.299 34.4306 298.606 34.9486 299.072 35.3478C299.537 35.747 300.222 35.9728 301.126 36.0252C302.007 36.0762 302.772 35.9344 303.419 35.5996C304.067 35.2649 304.571 34.7938 304.932 34.1866C305.268 33.6011 305.459 32.9258 305.503 32.1606L306.019 23.2565C306.054 22.6536 306.28 22.1549 306.699 21.7604C307.116 21.389 307.626 21.2208 308.228 21.2557C308.831 21.2906 309.318 21.5166 309.69 21.9336C310.06 22.3738 310.227 22.8953 310.192 23.4982L308.948 44.9933C308.913 45.5962 308.687 46.0833 308.27 46.4547C307.851 46.8492 307.341 47.0291 306.738 46.9941C306.135 46.9592 305.649 46.7217 305.279 46.2815C304.907 45.8644 304.739 45.3545 304.774 44.7516L305.273 36.1258L305.789 36.2603C305.558 36.6424 305.244 37.043 304.847 37.4621C304.449 37.9044 303.972 38.3072 303.416 38.6705C302.86 39.0338 302.25 39.3126 301.588 39.5068C300.924 39.7243 300.209 39.8109 299.444 39.7666Z" fill="white"/>
<path d="M281.803 19.3764C283.774 19.4905 285.466 19.9957 286.88 20.8919C288.269 21.8099 289.317 22.999 290.023 24.4591C290.707 25.9178 290.997 27.5399 290.893 29.3254C290.772 31.4123 290.252 33.162 289.333 34.5745C288.389 36.0088 287.21 37.0806 285.796 37.7897C284.383 38.4989 282.911 38.8092 281.38 38.7205C280.198 38.6521 279.099 38.3441 278.084 37.7968C277.045 37.248 276.145 36.5212 275.383 35.6163C274.62 34.7345 274.039 33.7237 273.639 32.5838C273.217 31.4426 273.042 30.2459 273.114 28.9938C273.17 28.4386 273.416 27.9992 273.854 27.6756C274.291 27.3519 274.788 27.2062 275.345 27.2384L288.631 28.0079L289.473 31.5465L276.708 30.8073L277.514 30.1559L277.46 31.095C277.467 31.7702 277.676 32.3872 278.085 32.946C278.472 33.5035 278.981 33.9517 279.613 34.2908C280.22 34.6517 280.883 34.8529 281.602 34.8946C282.297 34.9348 282.952 34.8797 283.566 34.7291C284.179 34.5785 284.719 34.2957 285.185 33.8806C285.651 33.4656 286.033 32.8944 286.331 32.1672C286.63 31.4399 286.811 30.5082 286.877 29.372C286.95 28.1199 286.756 27.0385 286.297 26.1278C285.814 25.239 285.18 24.5392 284.395 24.0284C283.586 23.5395 282.717 23.2682 281.79 23.2145C280.932 23.1648 280.244 23.1948 279.725 23.3043C279.207 23.4139 278.792 23.5527 278.48 23.7208C278.143 23.9107 277.843 24.0678 277.58 24.1922C277.151 24.3767 276.75 24.4582 276.379 24.4367C275.869 24.4072 275.462 24.2091 275.158 23.8425C274.83 23.4745 274.679 23.0587 274.706 22.5949C274.743 21.9688 275.1 21.4195 275.779 20.947C276.411 20.4718 277.284 20.0686 278.396 19.7375C279.508 19.4296 280.643 19.3093 281.803 19.3764Z" fill="white"/>
<path d="M256.174 36.912C255.572 36.877 255.085 36.6395 254.715 36.1993C254.344 35.7823 254.176 35.2723 254.21 34.6694L255.067 19.8872C255.19 17.7539 255.694 16.0847 256.578 14.8796C257.44 13.6499 258.56 12.7957 259.937 12.3171C261.314 11.8385 262.837 11.6475 264.507 11.7442C265.249 11.7872 266.034 11.8908 266.862 12.0551C267.69 12.2194 268.364 12.4329 268.884 12.6956C269.562 13.0374 270.027 13.4482 270.278 13.928C270.508 14.3834 270.527 14.8614 270.335 15.3621C270.087 16.0225 269.724 16.4668 269.246 16.695C268.768 16.9 268.28 16.895 267.781 16.68C267.416 16.5425 266.94 16.3404 266.35 16.0736C265.762 15.7837 265.074 15.6158 264.285 15.5702C263.219 15.5084 262.329 15.6081 261.616 15.8693C260.881 16.1059 260.319 16.562 259.931 17.2375C259.521 17.8884 259.282 18.8052 259.214 19.9878L259.079 22.3181L258.397 21.4411C258.835 20.6987 259.371 20.0899 260.003 19.6147C260.611 19.1613 261.328 18.8306 262.154 18.6225C262.981 18.4145 263.916 18.3406 264.959 18.4011C266.188 18.4722 267.25 18.8129 268.145 19.4232C269.016 20.0552 269.678 20.8846 270.13 21.9112C270.581 22.961 270.769 24.1351 270.694 25.4337L270.106 35.5899C270.071 36.1928 269.845 36.6799 269.428 37.0513C269.009 37.4458 268.499 37.6257 267.896 37.5907C267.293 37.5558 266.807 37.3183 266.437 36.8781C266.065 36.461 265.897 35.9511 265.932 35.3482L266.448 26.4441C266.535 24.9369 266.272 23.8514 265.659 23.1878C265.021 22.546 264.111 22.1908 262.929 22.1223C262.117 22.0753 261.424 22.1864 260.85 22.4556C260.275 22.748 259.819 23.187 259.483 23.7724C259.145 24.381 258.951 25.1259 258.9 26.007L258.384 34.9111C258.349 35.514 258.123 36.0011 257.706 36.3725C257.288 36.767 256.777 36.9469 256.174 36.912Z" fill="white"/>
<path d="M230.746 35.7883C229.03 35.6889 227.752 35.2543 226.913 34.4845C226.05 33.7133 225.491 32.7154 225.236 31.4908C224.957 30.2881 224.86 28.9563 224.944 27.4955L225.46 18.5914C225.495 17.9885 225.721 17.4898 226.14 17.0952C226.557 16.7239 227.067 16.5556 227.67 16.5906C228.272 16.6255 228.76 16.8514 229.131 17.2685C229.501 17.7087 229.669 18.2302 229.634 18.8331L229.118 27.7372C229.074 28.5024 229.138 29.1925 229.312 29.8075C229.461 30.4443 229.78 30.9629 230.269 31.3635C230.758 31.764 231.477 31.9918 232.428 32.0469C233.356 32.1006 234.155 31.9608 234.825 31.6274C235.473 31.2926 235.989 30.8223 236.373 30.2163C236.732 29.6323 236.934 28.9576 236.979 28.1924L237.494 19.2883C237.529 18.6854 237.756 18.1867 238.174 17.7922C238.591 17.4208 239.101 17.2526 239.704 17.2875C240.307 17.3224 240.794 17.5484 241.165 17.9654C241.535 18.4056 241.703 18.9271 241.668 19.53L240.836 33.8948C240.801 34.4977 240.575 34.9849 240.158 35.3562C239.74 35.7508 239.229 35.9306 238.626 35.8957C238.024 35.8608 237.537 35.6232 237.167 35.183C236.796 34.766 236.628 34.256 236.662 33.6531L236.749 32.1575L237.265 32.2921C237.033 32.6742 236.708 33.0741 236.288 33.4919C235.867 33.9328 235.378 34.3349 234.822 34.6982C234.266 35.0615 233.645 35.3396 232.959 35.5326C232.272 35.7487 231.534 35.8339 230.746 35.7883Z" fill="white"/>
<path d="M212.935 15.3883C214.906 15.5024 216.598 16.0076 218.012 16.9037C219.402 17.8217 220.449 19.0108 221.156 20.4709C221.839 21.9297 222.129 23.5518 222.026 25.3373C221.905 27.4242 221.385 29.1739 220.465 30.5863C219.521 32.0207 218.343 33.0924 216.929 33.8016C215.515 34.5107 214.043 34.821 212.513 34.7324C211.33 34.6639 210.231 34.356 209.216 33.8086C208.178 33.2599 207.277 32.5331 206.516 31.6281C205.752 30.7464 205.171 29.7355 204.772 28.5957C204.349 27.4545 204.174 26.2578 204.247 25.0056C204.302 24.4505 204.549 24.0111 204.986 23.6874C205.424 23.3638 205.921 23.2181 206.477 23.2503L219.764 24.0197L220.606 27.5583L207.841 26.8191L208.646 26.1678L208.592 27.1069C208.599 27.782 208.808 28.399 209.218 28.9578C209.604 29.5153 210.113 29.9636 210.745 30.3026C211.352 30.6635 212.015 30.8648 212.734 30.9064C213.43 30.9467 214.085 30.8915 214.698 30.7409C215.312 30.5904 215.852 30.3075 216.318 29.8925C216.784 29.4774 217.166 28.9063 217.464 28.179C217.762 27.4518 217.944 26.5201 218.01 25.3839C218.082 24.1317 217.889 23.0503 217.43 22.1397C216.946 21.2508 216.312 20.551 215.527 20.0403C214.718 19.5514 213.85 19.28 212.922 19.2263C212.064 19.1767 211.376 19.2066 210.858 19.3162C210.34 19.4258 209.925 19.5646 209.612 19.7326C209.276 19.9225 208.976 20.0796 208.713 20.204C208.283 20.3885 207.883 20.47 207.512 20.4486C207.002 20.419 206.594 20.2209 206.29 19.8543C205.962 19.4864 205.812 19.0705 205.839 18.6067C205.875 17.9807 206.233 17.4314 206.911 16.9588C207.544 16.4836 208.416 16.0805 209.529 15.7494C210.64 15.4415 211.776 15.3211 212.935 15.3883Z" fill="white"/>
<path d="M193.276 14.2498C195.247 14.3639 196.94 14.8691 198.354 15.7653C199.743 16.6833 200.791 17.8723 201.497 19.3324C202.181 20.7912 202.471 22.4133 202.367 24.1988C202.246 26.2857 201.726 28.0354 200.807 29.4479C199.863 30.8822 198.684 31.954 197.27 32.6631C195.857 33.3723 194.385 33.6825 192.854 33.5939C191.672 33.5254 190.573 33.2175 189.557 32.6701C188.519 32.1214 187.619 31.3946 186.857 30.4896C186.094 29.6079 185.512 28.5971 185.113 27.4572C184.691 26.316 184.516 25.1193 184.588 23.8672C184.644 23.312 184.89 22.8726 185.328 22.549C185.765 22.2253 186.262 22.0796 186.819 22.1118L200.105 22.8813L200.947 26.4198L188.182 25.6806L188.988 25.0293L188.934 25.9684C188.941 26.6436 189.15 27.2605 189.559 27.8194C189.946 28.3769 190.455 28.8251 191.087 29.1642C191.694 29.525 192.357 29.7263 193.076 29.7679C193.771 29.8082 194.426 29.7531 195.04 29.6025C195.653 29.4519 196.193 29.1691 196.659 28.754C197.125 28.339 197.507 27.7678 197.805 27.0406C198.103 26.3133 198.285 25.3816 198.351 24.2454C198.424 22.9933 198.23 21.9119 197.771 21.0012C197.288 20.1123 196.653 19.4126 195.869 18.9018C195.059 18.4129 194.191 18.1416 193.264 18.0879C192.406 18.0382 191.718 18.0681 191.199 18.1777C190.681 18.2873 190.266 18.4261 189.954 18.5942C189.617 18.7841 189.317 18.9412 189.054 19.0655C188.625 19.2501 188.224 19.3316 187.853 19.3101C187.343 19.2805 186.936 19.0825 186.631 18.7158C186.304 18.3479 186.153 17.932 186.18 17.4683C186.216 16.8422 186.574 16.2929 187.253 15.8204C187.885 15.3452 188.758 14.942 189.87 14.6109C190.982 14.303 192.117 14.1827 193.276 14.2498Z" fill="white"/>
<path d="M165.638 38.823C165.035 38.7881 164.548 38.5621 164.176 38.1451C163.805 37.7281 163.638 37.2066 163.674 36.5805L164.919 15.0854C164.954 14.4825 165.18 13.9838 165.599 13.5893C166.016 13.2179 166.525 13.0497 167.128 13.0846C167.731 13.1195 168.218 13.3455 168.59 13.7625C168.96 14.2027 169.127 14.7242 169.092 15.3271L168.994 17.0314L168.247 16.6741C168.264 16.3726 168.448 16.011 168.798 15.5893C169.147 15.1907 169.612 14.7988 170.192 14.4137C170.773 14.0285 171.455 13.7074 172.237 13.4502C172.995 13.2149 173.815 13.1228 174.696 13.1738C176.296 13.2665 177.722 13.7562 178.973 14.643C180.224 15.5529 181.19 16.7489 181.872 18.2309C182.529 19.7347 182.803 21.4257 182.695 23.3039C182.584 25.2053 182.117 26.8533 181.291 28.248C180.442 29.6645 179.356 30.7416 178.033 31.4793C176.71 32.2402 175.271 32.5757 173.717 32.4857C172.72 32.428 171.813 32.2242 170.996 31.8745C170.179 31.5247 169.482 31.1004 168.906 30.6018C168.307 30.1018 167.859 29.5989 167.562 29.0931C167.241 28.6092 167.09 28.205 167.109 27.8804L168.387 27.5007L167.848 36.8222C167.813 37.4251 167.587 37.9122 167.17 38.2836C166.751 38.6781 166.241 38.8579 165.638 38.823ZM173.953 16.9696C172.933 16.9105 172.025 17.1139 171.23 17.5797C170.436 18.0455 169.804 18.7069 169.336 19.5639C168.844 20.4195 168.567 21.3922 168.504 22.4821C168.439 23.5951 168.602 24.6049 168.991 25.5116C169.358 26.4169 169.909 27.1467 170.644 27.7012C171.38 28.2556 172.258 28.5624 173.278 28.6215C174.275 28.6792 175.171 28.4752 175.966 28.0094C176.761 27.5435 177.404 26.8828 177.895 26.0272C178.364 25.1702 178.63 24.1852 178.695 23.0722C178.758 21.9824 178.606 20.9848 178.24 20.0795C177.85 19.1729 177.288 18.4423 176.552 17.8879C175.816 17.3335 174.95 17.0274 173.953 16.9696Z" fill="white"/>
<path d="M159.439 12.6742C160.111 12.7131 160.623 12.9172 160.974 13.2865C161.3 13.6777 161.444 14.2095 161.405 14.8819L161.371 15.4732C161.332 16.1457 161.128 16.6457 160.76 16.9734C160.368 17.3229 159.835 17.4782 159.163 17.4393L158.711 17.4131C158.038 17.3741 157.539 17.1591 157.213 16.7679C156.862 16.3986 156.706 15.8778 156.745 15.2053L156.779 14.614C156.818 13.9416 157.034 13.4306 157.426 13.0811C157.794 12.7534 158.314 12.609 158.987 12.648L159.439 12.6742Z" fill="white"/>
</svg>
