<svg width="125" height="32" viewBox="0 0 125 32" fill="none" xmlns="http://www.w3.org/2000/svg">
<path fill-rule="evenodd" clip-rule="evenodd" d="M28.6904 8.125C30.1118 8.125 31.45 8.41667 32.7041 9C33.986 9.58333 35.1144 10.3893 36.0898 11.417C37.0653 12.417 37.8323 13.5837 38.3896 14.917C38.9748 16.2502 39.2676 17.6671 39.2676 19.167C39.2396 19.8335 38.9742 20.3754 38.4727 20.792C37.9711 21.2085 37.3855 21.417 36.7168 21.417H22.9131C23.0619 22.1874 23.3148 22.8819 23.6738 23.5C24.3148 24.5278 25.1232 25.3194 26.0986 25.875C27.1018 26.4027 28.1608 26.6669 29.2754 26.667C30.3064 26.667 31.1291 26.5836 31.7422 26.417C32.3552 26.2504 32.8428 26.0552 33.2051 25.833C33.5953 25.583 33.9444 25.3747 34.251 25.208C34.7524 24.9582 35.2261 24.833 35.6719 24.833C36.2849 24.833 36.7866 25.0415 37.1768 25.458C37.5948 25.8747 37.8037 26.3614 37.8037 26.917C37.8036 27.6668 37.4138 28.3471 36.6338 28.958C35.9092 29.5691 34.8918 30.1108 33.582 30.583C32.2721 31.0275 30.9199 31.25 29.5264 31.25C27.1577 31.25 25.0955 30.764 23.3398 29.792C21.6119 28.792 20.2738 27.4444 19.3262 25.75C18.4065 24.0556 17.9463 22.1389 17.9463 20C17.9463 17.5 18.4488 15.375 19.4521 13.625C20.4833 11.8474 21.8207 10.4864 23.4648 9.54199C25.1091 8.59758 26.8511 8.12503 28.6904 8.125ZM28.6904 12.708C27.8544 12.708 27.0742 12.8198 26.3496 13.042C25.625 13.2642 24.9983 13.6393 24.4688 14.167C23.9392 14.6948 23.5204 15.4031 23.2139 16.292C23.1127 16.5854 23.0307 16.9051 22.9629 17.25H33.916V16.958C33.8602 16.1526 33.5675 15.4308 33.0381 14.792C32.5364 14.1531 31.8956 13.6531 31.1152 13.292C30.3627 12.9031 29.5544 12.708 28.6904 12.708Z" fill="white"/>
<path fill-rule="evenodd" clip-rule="evenodd" d="M114.424 8.125C115.845 8.12507 117.183 8.41676 118.437 9C119.719 9.58333 120.848 10.3892 121.823 11.417C122.799 12.4169 123.565 13.5838 124.122 14.917C124.707 16.2502 125 17.6671 125 19.167C124.972 19.8335 124.708 20.3754 124.206 20.792C123.704 21.2086 123.119 21.4169 122.45 21.417H108.646C108.794 22.1875 109.048 22.8819 109.407 23.5C110.048 24.5276 110.856 25.3195 111.831 25.875C112.834 26.4028 113.894 26.667 115.009 26.667C116.04 26.667 116.862 26.5836 117.476 26.417C118.089 26.2503 118.576 26.0552 118.938 25.833C119.329 25.5831 119.677 25.3746 119.983 25.208C120.485 24.9581 120.959 24.8331 121.404 24.833C122.017 24.833 122.52 25.0413 122.91 25.458C123.328 25.8747 123.537 26.3615 123.537 26.917C123.537 27.6668 123.146 28.347 122.366 28.958C121.642 29.5691 120.624 30.1108 119.314 30.583C118.005 31.0274 116.653 31.25 115.26 31.25C112.891 31.25 110.828 30.7642 109.072 29.792C107.344 28.792 106.006 27.4444 105.059 25.75C104.139 24.0556 103.68 22.1388 103.68 20C103.68 17.5 104.181 15.375 105.185 13.625C106.216 11.8474 107.553 10.4864 109.197 9.54199C110.842 8.59755 112.584 8.125 114.424 8.125Z" fill="white"/>
<path d="M6.81445 3.75C7.53896 3.75006 8.12444 4.00006 8.57031 4.5C9.044 4.9722 9.28027 5.56985 9.28027 6.29199V8.95801H12.249C12.9178 8.95805 13.475 9.18064 13.9209 9.625C14.3668 10.0694 14.5898 10.6253 14.5898 11.292C14.5898 11.9307 14.3667 12.4726 13.9209 12.917C13.4751 13.3335 12.9177 13.542 12.249 13.542H9.28027V24.833C9.28027 25.2219 9.34991 25.542 9.48926 25.792C9.65648 26.042 9.86636 26.2219 10.1172 26.333C10.3958 26.4441 10.6886 26.5 10.9951 26.5C11.3293 26.5 11.6355 26.444 11.9141 26.333C12.1928 26.1941 12.5137 26.125 12.876 26.125C13.2661 26.125 13.6143 26.3059 13.9209 26.667C14.2553 27.0281 14.4229 27.5282 14.4229 28.167C14.4227 28.9445 13.9906 29.5831 13.127 30.083C12.2909 30.583 11.3846 30.833 10.4092 30.833C9.82397 30.833 9.16885 30.7913 8.44434 30.708C7.7477 30.5969 7.07842 30.3611 6.4375 30C5.82455 29.6111 5.30956 29.0276 4.8916 28.25C4.47359 27.4723 4.26371 26.4029 4.26367 25.042V13.542H2.34082C1.67207 13.5419 1.1148 13.3194 0.668945 12.875C0.223026 12.4306 0 11.8747 0 11.208C7.56599e-05 10.5693 0.223102 10.0416 0.668945 9.625C1.1148 9.18063 1.67207 8.95806 2.34082 8.95801H4.26367V6.29199C4.26367 5.56982 4.50088 4.97221 4.97461 4.5C5.47627 4 6.08983 3.75 6.81445 3.75Z" fill="white"/>
<path d="M46.6182 0C47.3427 0 47.9281 0.250051 48.374 0.75C48.8478 1.22222 49.085 1.81977 49.085 2.54199V28.292C49.0849 29.0141 48.8336 29.6251 48.332 30.125C47.8584 30.597 47.2595 30.8329 46.5352 30.833C45.8385 30.833 45.2531 30.5971 44.7793 30.125C44.3056 29.6251 44.0684 29.0141 44.0684 28.292V2.54199C44.0684 1.81977 44.3055 1.22222 44.7793 0.75C45.2809 0.250163 45.8937 4.76827e-05 46.6182 0Z" fill="white"/>
<path d="M57.8857 0C58.6103 0 59.1957 0.250103 59.6416 0.75C60.1154 1.22222 60.3525 1.81977 60.3525 2.54199V28.292C60.3525 29.014 60.102 29.6251 59.6006 30.125C59.1268 30.5972 58.5272 30.833 57.8027 30.833C57.106 30.833 56.5206 30.5972 56.0469 30.125C55.5732 29.6251 55.336 29.0141 55.3359 28.292V2.54199C55.3359 1.81977 55.5731 1.22222 56.0469 0.75C56.5484 0.250146 57.1613 8.34836e-05 57.8857 0Z" fill="white"/>
<path d="M91.9795 8.125C93.986 8.12502 95.505 8.5559 96.5361 9.41699C97.5951 10.2781 98.3198 11.4306 98.71 12.875C99.1001 14.2917 99.2949 15.875 99.2949 17.625V28.292C99.2949 29.014 99.0585 29.6251 98.585 30.125C98.1112 30.5972 97.5116 30.833 96.7871 30.833C96.0625 30.833 95.463 30.5972 94.9893 30.125C94.5155 29.6251 94.2784 29.0141 94.2783 28.292V17.625C94.2783 16.7085 94.1672 15.8891 93.9443 15.167C93.7214 14.417 93.3167 13.8194 92.7314 13.375C92.1462 12.9307 91.3104 12.708 90.2236 12.708C89.1646 12.708 88.2583 12.9306 87.5059 13.375C86.7535 13.8194 86.1821 14.4171 85.792 15.167C85.4298 15.8891 85.249 16.7085 85.249 17.625V28.292C85.249 29.0141 85.0118 29.6251 84.5381 30.125C84.0643 30.5972 83.4649 30.833 82.7402 30.833C82.0157 30.833 81.4161 30.5972 80.9424 30.125C80.4688 29.6251 80.2325 29.014 80.2324 28.292V17.625C80.2324 16.7084 80.1204 15.8892 79.8975 15.167C79.6745 14.417 79.2708 13.8194 78.6855 13.375C78.1003 12.9306 77.2637 12.708 76.1768 12.708C75.1179 12.7081 74.2123 12.9307 73.46 13.375C72.7075 13.8194 72.1363 14.417 71.7461 15.167C71.3838 15.8892 71.2021 16.7084 71.2021 17.625V28.292C71.2021 29.0141 70.9649 29.6251 70.4912 30.125C70.0175 30.597 69.4187 30.8329 68.6943 30.833C67.9697 30.833 67.3703 30.5972 66.8965 30.125C66.4228 29.6251 66.1856 29.0141 66.1855 28.292V11.083C66.1856 10.361 66.4228 9.76413 66.8965 9.29199C67.3703 8.79199 67.9697 8.54199 68.6943 8.54199C69.4188 8.54207 70.0175 8.79209 70.4912 9.29199C70.9649 9.76414 71.2021 10.3609 71.2021 11.083V11.7783C71.3309 11.6058 71.469 11.4289 71.6201 11.25C72.066 10.6944 72.61 10.1802 73.251 9.70801C73.8919 9.2359 74.6026 8.86074 75.3828 8.58301C76.1631 8.27752 77.0131 8.12503 77.9326 8.125C80.1622 8.125 81.8072 8.66667 82.8662 9.75C83.6698 10.551 84.264 11.5362 84.6504 12.7051C84.9851 12.1037 85.4768 11.4659 86.127 10.792C86.8236 10.0421 87.6594 9.41697 88.6348 8.91699C89.6381 8.38921 90.7532 8.125 91.9795 8.125Z" fill="white"/>
</svg>
