<?xml version="1.0" encoding="UTF-8" standalone="no"?>
<!-- Created with Inkscape (http://www.inkscape.org/) -->

<svg
   width="48"
   height="31.441093"
   viewBox="0 0 12.7 8.3187893"
   version="1.1"
   id="svg1"
   xml:space="preserve"
   xmlns="http://www.w3.org/2000/svg"
   xmlns:svg="http://www.w3.org/2000/svg"
   xmlns:rdf="http://www.w3.org/1999/02/22-rdf-syntax-ns#"
   xmlns:cc="http://creativecommons.org/ns#"
   xmlns:dc="http://purl.org/dc/elements/1.1/"><title
     id="title6">tellme logo</title><defs
     id="defs1" /><g
     id="layer1"
     transform="translate(0,-2.1906056)"><g
       id="g5"
       transform="matrix(3.6063104,0,0,3.6063104,-7.4258252,2.2597979)"><g
         id="g6"
         transform="matrix(1.004853,0,0,1.004853,0.03074304,-0.01918644)"><path
           id="path5"
           style="fill:#5e77c0;fill-opacity:1;stroke:none;stroke-width:0.115094;stroke-dasharray:none"
           d="m 2.7927875,0.06746753 h 1.858097 c 0.4289106,0 0.7742069,0.36876303 0.7742069,0.82682294 0,0.45805983 -0.3406512,0.88910763 -0.7122707,0.87213353 L 4.3520376,2.2955907 3.9695821,1.8021726 2.7927875,1.7211134 C 2.3647662,1.6916307 2.0185806,1.3523503 2.0185806,0.89429047 c 0,-0.45805991 0.3452962,-0.82682294 0.7742069,-0.82682294 z" /><path
           id="rect4"
           style="fill:#293968;fill-opacity:1;stroke:none;stroke-width:0.115094;stroke-dasharray:none"
           d="m 2.8908737,0 h 1.858097 c 0.4289106,0 0.7742069,0.36876303 0.7742069,0.82682294 0,0.45805986 -0.3406512,0.88910766 -0.7122707,0.87213356 L 4.4501238,2.2281232 4.0676683,1.7347051 2.8908737,1.6536459 C 2.4628524,1.6241632 2.1166668,1.2848828 2.1166668,0.82682294 2.1166668,0.36876303 2.461963,0 2.8908737,0 Z" /><path
           id="rect5"
           style="fill:#5e77c0;fill-opacity:1;stroke:none;stroke-width:0.115103"
           transform="matrix(0.98853203,-0.15101132,0.1331527,0.99109553,0,0)"
           d="m 3.2715828,0.88504207 h 1.102985 c 0.2859402,0 0.5161375,0.23019733 0.5161375,0.51613753 0,0.2859402 -0.2301973,0.5161376 -0.5161375,0.5161376 h -1.102985 c -0.2859402,0 -0.5161376,-0.2301974 -0.5161376,-0.5161376 0,-0.2859402 0.2301974,-0.51613753 0.5161376,-0.51613753 z" /><path
           id="path6"
           style="fill:#293968;fill-opacity:1;stroke:none;stroke-width:0.10314"
           d="M 3.4156396,0.42757376 4.392786,0.2783018 C 4.6461032,0.23960417 4.877507,0.41291367 4.9116282,0.66688803 4.9457494,0.92086239 4.7692846,1.1564792 4.5159671,1.1951766 L 3.5388214,1.3444486 C 3.285504,1.3831463 3.0540998,1.2098369 3.019978,0.95586245 2.9858575,0.70188811 3.1623218,0.46627133 3.4156396,0.42757376 Z" /></g></g></g><metadata
     id="metadata6"><rdf:RDF><cc:Work
         rdf:about=""><dc:title>tellme logo</dc:title></cc:Work></rdf:RDF></metadata></svg>
